<?xml version="1.0" standalone="no"?>
<!DOCTYPE svg PUBLIC "-//W3C//DTD SVG 20010904//EN"
 "http://www.w3.org/TR/2001/REC-SVG-20010904/DTD/svg10.dtd">
<svg version="1.0" xmlns="http://www.w3.org/2000/svg"
 width="736.000000pt" height="736.000000pt" viewBox="0 0 736.000000 736.000000"
 preserveAspectRatio="xMidYMid meet">

<g transform="translate(0.000000,736.000000) scale(0.100000,-0.100000)"
fill="#000000" stroke="none">
<path d="M5204 6538 c-68 -54 -129 -157 -184 -313 -17 -49 -35 -94 -40 -99 -5
-5 -27 2 -52 17 -269 157 -622 274 -978 323 -171 23 -501 24 -670 0 -435 -59
-861 -222 -1172 -447 -37 -27 -70 -49 -72 -49 -3 0 -23 48 -45 108 -83 216
-160 352 -201 352 -54 0 -148 -182 -186 -363 -20 -98 -19 -114 11 -121 33 -8
32 -23 -7 -63 l-32 -33 -4 -128 -4 -127 -42 -45 c-134 -141 -310 -401 -409
-602 -127 -259 -221 -557 -268 -853 -28 -178 -37 -519 -19 -704 23 -241 102
-565 187 -771 l35 -85 -17 -83 c-34 -172 -30 -424 10 -597 17 -73 54 -181 88
-255 83 -185 259 -394 420 -501 37 -24 67 -46 67 -50 0 -4 -24 -10 -52 -14
l-53 -8 75 -18 c41 -10 93 -18 115 -19 22 0 74 -6 115 -14 41 -8 152 -17 245
-21 187 -7 293 5 380 44 26 12 54 21 61 21 25 0 15 18 -13 24 -85 21 -103 28
-97 37 8 13 -3 16 212 -60 387 -135 648 -183 1012 -183 357 0 647 51 998 178
237 86 430 190 636 343 l106 78 103 16 c107 17 273 64 329 93 l33 18 -25 7
c-14 4 -44 7 -67 8 -52 1 -54 12 -9 40 55 34 203 172 245 229 22 29 52 78 67
110 30 63 76 203 69 210 -5 5 -6 1 -55 -119 -17 -42 -37 -85 -46 -95 -10 -12
-8 -5 4 21 23 48 66 175 61 180 -2 2 -20 -4 -39 -14 -113 -54 -330 -143 -342
-139 -4 2 33 21 84 42 164 69 358 167 408 207 116 91 173 207 151 302 -6 27
-25 70 -42 95 l-30 45 25 71 c113 318 172 761 146 1084 -53 663 -303 1260
-722 1721 -48 53 -49 54 -43 105 10 79 -13 250 -46 351 -69 205 -194 411 -301
496 -57 45 -74 48 -114 17z m112 -66 c67 -63 147 -179 195 -279 21 -46 39 -87
39 -93 0 -6 -16 -24 -35 -41 -19 -17 -35 -36 -35 -41 0 -10 52 -4 85 8 37 14
73 -244 56 -393 -17 -144 -29 -180 -66 -208 -34 -27 -51 -32 -39 -14 4 8 -1 9
-17 5 -13 -3 -19 -3 -12 0 13 6 6 34 -9 34 -5 0 -6 -5 -2 -12 4 -7 3 -8 -4 -4
-18 11 -38 -4 -21 -15 12 -8 11 -11 -1 -19 -8 -5 -19 -10 -25 -10 -5 0 -3 5 5
10 12 8 13 11 1 19 -9 6 -10 11 -2 15 21 13 11 22 -23 21 -35 -2 -49 -9 -97
-53 -26 -23 -26 -23 -32 -3 -3 13 -13 21 -26 21 -12 0 -21 5 -21 10 0 6 -7 10
-16 10 -9 0 -27 9 -41 20 -14 11 -32 20 -39 20 -8 0 -14 10 -15 23 0 21 -1 21
-9 2 l-9 -20 -2 20 c-1 12 -5 6 -9 -15 -7 -28 -8 -19 -8 40 0 41 -3 96 -7 121
-16 103 28 475 72 614 14 44 68 170 94 218 18 33 -9 17 -44 -25 -52 -65 -92
-152 -137 -300 -37 -123 -50 -180 -95 -423 -22 -115 -61 -283 -74 -315 -8 -20
-9 -15 -6 25 3 28 2 42 -1 33 -7 -22 -24 -24 -24 -3 0 8 -9 15 -20 15 -11 0
-20 -5 -20 -11 0 -7 -11 -9 -30 -5 -25 5 -30 2 -30 -14 0 -12 -5 -17 -14 -14
-9 4 -18 -6 -26 -30 -10 -32 -30 -42 -30 -15 0 6 5 7 10 4 6 -3 10 1 10 9 0 8
-5 18 -11 21 -6 4 -8 14 -4 24 12 31 -21 -11 -99 -128 -57 -85 -76 -107 -76
-88 0 24 90 181 165 287 198 280 267 405 355 645 28 77 67 169 87 205 39 73
99 140 123 140 9 0 39 -21 66 -48z m-3481 -135 c20 -30 71 -143 116 -252 97
-241 147 -334 290 -535 195 -274 307 -446 296 -457 -3 -3 -33 33 -67 79 -72
97 -73 98 -64 75 11 -31 -2 -18 -41 38 -20 30 -38 55 -39 55 -1 0 -2 -9 -2
-19 0 -11 3 -19 6 -19 18 2 23 -4 10 -12 -10 -6 -11 -10 -2 -10 6 0 12 -5 12
-11 0 -5 -4 -8 -10 -4 -5 3 -13 -9 -18 -27 l-8 -33 -24 28 c-22 25 -26 26 -36
12 -8 -11 -14 -13 -19 -5 -4 6 -2 17 4 24 9 10 6 13 -14 11 -14 -2 -28 2 -32
7 -3 7 -1 8 5 4 14 -8 15 -5 6 19 -6 13 -9 14 -16 3 -7 -9 -8 -7 -5 10 3 12 2
20 -3 17 -4 -3 -18 22 -30 55 -37 98 -33 62 5 -50 19 -57 33 -106 31 -108 -13
-13 -116 306 -166 518 -54 227 -112 411 -160 504 -56 110 -79 124 -41 24 51
-132 111 -382 165 -688 18 -103 42 -215 62 -294 8 -32 13 -61 10 -64 -3 -3 -6
1 -6 9 0 12 -2 12 -10 -1 -5 -9 -5 -17 1 -21 16 -9 -1 -40 -20 -34 -15 5 -41
-36 -47 -74 -2 -8 -8 -17 -15 -22 -7 -4 -17 -22 -23 -41 -13 -40 -47 -45 -86
-13 -21 17 -20 15 4 -12 16 -18 38 -35 49 -39 18 -6 18 -6 -2 -21 -18 -12 -19
-18 -10 -35 22 -41 103 -119 170 -163 78 -52 116 -70 213 -96 63 -17 66 -19
22 -13 -138 17 -261 81 -380 198 l-80 78 24 21 c18 14 21 21 12 25 -52 18
-139 137 -186 256 -52 132 -68 218 -73 407 l-5 176 57 71 c32 40 61 72 66 72
5 0 9 5 9 10 0 6 -25 10 -55 10 -64 0 -63 -1 -40 100 33 141 113 310 146 310
5 0 25 -24 44 -53z m2065 2 c224 -24 509 -101 721 -194 106 -46 254 -124 289
-153 l22 -18 -33 -60 c-18 -32 -101 -162 -184 -289 -84 -126 -165 -254 -181
-282 -16 -29 -32 -53 -35 -53 -3 0 -13 17 -23 38 -36 75 -126 199 -194 266
-167 164 -387 268 -602 283 l-85 6 -35 43 c-44 56 -109 103 -164 119 -63 19
-76 6 -43 -44 15 -23 26 -41 23 -41 -2 0 -23 9 -47 19 -82 36 -179 39 -179 5
0 -7 36 -32 79 -54 44 -22 82 -43 84 -47 3 -5 -22 -6 -55 -5 -65 4 -113 -11
-129 -40 -8 -16 -6 -19 20 -24 29 -6 28 -8 -42 -41 -82 -39 -189 -117 -261
-189 -94 -94 -201 -250 -251 -364 -16 -36 -32 -69 -35 -73 -4 -4 -37 41 -74
100 -37 59 -128 191 -202 293 -74 101 -134 187 -134 190 0 3 28 -26 62 -65 35
-38 121 -129 193 -200 71 -72 98 -97 59 -55 -86 91 -150 161 -239 260 -37 41
-72 74 -78 72 -7 -2 -9 0 -5 4 5 4 -3 22 -17 40 -32 42 -31 55 4 82 l30 22 48
-58 c95 -114 302 -334 394 -417 61 -56 50 -43 -81 92 -63 65 -133 139 -155
163 -124 138 -185 212 -185 223 0 14 81 77 98 77 5 0 57 -57 116 -126 107
-128 289 -322 316 -339 8 -5 -35 45 -97 110 -118 127 -313 355 -313 367 0 4 9
12 19 17 16 9 24 4 47 -27 70 -93 226 -274 298 -347 l79 -80 -90 100 c-138
155 -306 366 -296 375 19 18 275 140 364 174 242 90 489 142 749 160 79 5 318
-3 430 -15z m-483 -350 c1 -12 1 -20 0 -18 -2 2 -9 12 -16 22 -11 14 -11 17 1
17 7 0 14 -10 15 -21z m114 -71 c48 -49 62 -58 92 -58 59 0 202 -29 279 -56
103 -37 226 -105 312 -174 66 -54 92 -83 180 -203 46 -62 107 -214 105 -262 0
-11 -11 9 -23 45 -121 344 -394 563 -780 625 -50 8 -116 16 -146 17 -36 1 -44
3 -22 5 17 2 32 6 32 8 0 2 -30 34 -67 70 -38 37 -57 61 -43 54 14 -7 50 -38
81 -71z m-160 15 c27 -14 49 -30 49 -35 0 -13 -12 -10 -49 13 -19 12 -60 29
-90 40 l-56 19 49 -5 c26 -3 70 -17 97 -32z m-64 -89 c30 -10 63 -14 92 -11
25 3 78 0 116 -7 39 -8 65 -14 59 -15 -14 -1 -16 -51 -2 -51 5 0 8 -26 6 -57
-2 -44 -7 -58 -18 -58 -10 0 -15 -11 -16 -32 -1 -18 3 -33 8 -33 4 0 8 5 8 11
0 5 4 7 10 4 6 -3 0 -16 -13 -30 -39 -43 -44 -50 -51 -88 -7 -36 -26 -52 -26
-21 0 9 -6 14 -12 11 -7 -2 -12 -14 -11 -26 2 -12 -4 -24 -12 -28 -9 -3 -24
-22 -35 -42 -10 -20 -28 -44 -39 -53 -12 -10 -18 -25 -16 -37 4 -24 -23 -29
-44 -8 -10 8 -15 9 -18 1 -3 -8 -17 -9 -46 -2 -31 6 -52 5 -75 -5 -30 -12 -27
-13 51 -14 53 0 95 -6 117 -16 l35 -16 -65 5 c-111 10 -199 -21 -283 -97 -17
-16 -36 -28 -42 -26 -5 2 -15 -3 -22 -12 -11 -14 -12 -14 -13 -1 0 13 -1 13
-10 0 -8 -12 -10 -12 -11 5 l0 20 -10 -20 c-8 -17 -9 -16 -6 7 2 15 1 25 -3
23 -4 -2 -15 24 -25 58 -42 140 -78 197 -125 197 -26 0 -50 -24 -79 -78 -12
-23 -12 -23 18 -8 98 51 154 -23 206 -270 15 -75 43 -308 52 -434 6 -96 -4
-122 -64 -157 -40 -23 -59 -28 -113 -27 -76 1 -115 18 -159 71 -45 55 -38 25
12 -48 32 -49 56 -70 102 -96 63 -35 61 -47 -3 -14 -48 25 -114 95 -142 149
-54 109 -79 355 -50 497 30 148 77 272 141 371 47 73 75 91 118 76 25 -9 29
-8 24 4 -3 8 -19 14 -39 14 -33 0 -34 1 -23 22 21 38 172 184 238 228 56 37
198 110 216 110 4 0 -3 -13 -15 -30 -12 -16 -24 -47 -27 -67 -5 -36 -5 -37 10
-18 20 25 21 9 2 -25 -21 -37 -18 -46 6 -19 16 19 19 20 15 6 -3 -10 0 -27 8
-38 12 -18 14 -17 19 21 3 22 16 62 29 88 27 55 83 88 169 100 l54 7 -80 6
c-151 13 -215 22 -209 30 8 14 59 11 111 -7z m-12 -58 c-42 -13 -59 -11 -35 4
8 6 29 9 45 9 28 -1 28 -1 -10 -13z m305 -16 c0 -5 -2 -10 -4 -10 -3 0 -8 5
-11 10 -3 6 -1 10 4 10 6 0 11 -4 11 -10z m446 -165 c27 -8 58 -21 69 -30 17
-12 13 -12 -25 2 -105 38 -242 15 -316 -54 -76 -70 -88 -68 -21 4 78 85 179
112 293 78z m-352 -111 c-20 -44 -38 -74 -41 -67 -4 11 28 85 57 130 27 43 20
15 -16 -63z m1373 34 c-3 -7 -5 -2 -5 12 0 14 2 19 5 13 2 -7 2 -19 0 -25z
m-921 -34 c168 -85 263 -284 251 -528 -8 -174 -63 -284 -177 -353 -85 -52
-148 -66 -285 -67 -108 -1 -125 1 -170 23 -27 14 -54 27 -60 30 -5 2 -3 -4 5
-15 14 -19 14 -19 -7 0 -12 10 -21 21 -21 25 1 3 -6 21 -15 38 -24 45 -41 225
-33 353 11 187 61 341 136 419 19 21 28 28 20 17 -15 -21 -15 -21 8 -2 12 11
22 24 22 31 0 10 54 39 110 59 8 3 47 4 87 2 55 -2 85 -10 129 -32z m911 -46
c-3 -8 -6 -5 -6 6 -1 11 2 17 5 13 3 -3 4 -12 1 -19z m-196 -31 c-10 -9 -11
-8 -5 6 3 10 9 15 12 12 3 -3 0 -11 -7 -18z m826 -34 c56 -66 113 -144 113
-154 0 -9 -102 -89 -205 -161 -94 -65 -276 -169 -354 -203 -31 -13 -49 -24
-41 -25 24 0 237 110 335 174 50 32 131 90 182 127 50 38 94 69 97 69 3 0 26
-30 49 -67 77 -120 77 -105 -5 -159 -40 -26 -155 -89 -255 -141 l-182 -94 -28
21 c-36 26 -132 42 -208 34 -83 -9 -103 -18 -122 -58 -13 -27 -25 -37 -59 -45
-23 -6 -57 -23 -74 -38 -27 -22 -31 -32 -27 -58 5 -31 0 -36 -110 -125 -111
-88 -117 -91 -152 -84 -20 4 -48 7 -63 5 -17 -1 -36 6 -50 19 -13 12 -50 35
-83 51 -39 19 -49 27 -30 23 17 -3 59 -20 95 -37 36 -17 69 -33 74 -35 5 -3 6
0 2 6 -12 21 -121 73 -163 79 l-43 6 39 48 c21 27 51 78 67 114 l28 65 77 0
c220 0 488 95 700 247 119 85 236 210 284 302 17 33 17 35 -1 48 -10 7 -23 13
-28 13 -11 0 73 86 86 89 3 0 28 -25 55 -56z m-4061 -96 c34 -107 88 -207 148
-274 33 -36 42 -53 34 -61 -37 -37 210 -255 397 -349 81 -42 178 -70 264 -79
l71 -7 21 -46 c50 -114 125 -176 279 -232 64 -23 88 -35 80 -43 -13 -13 -120
-13 -225 1 -81 10 -148 5 -310 -21 -118 -20 -132 -15 -182 57 -24 34 -43 72
-43 83 0 12 -11 29 -25 38 -18 12 -25 25 -25 47 0 47 -39 79 -97 79 -91 0
-142 -27 -143 -76 0 -54 87 -114 167 -114 46 -1 50 -3 90 -54 59 -73 60 -79
18 -99 -20 -9 -45 -17 -55 -17 -11 0 -29 -4 -40 -10 -11 -5 -29 -14 -40 -20
-11 -5 -26 -10 -33 -10 -18 0 -67 -52 -67 -72 0 -8 -6 -20 -12 -25 -16 -12
-132 -58 -170 -67 -27 -6 -28 -5 -28 33 0 54 11 102 22 95 5 -3 6 5 3 18 -5
21 0 27 44 48 28 13 49 25 47 27 -1 2 -23 -5 -47 -16 -24 -11 -44 -19 -45 -18
-1 1 3 35 10 76 11 74 11 74 51 88 21 7 43 19 47 26 5 8 8 7 8 -5 0 -10 4 -18
10 -18 5 0 6 8 3 17 -5 13 -2 15 11 10 11 -5 16 -3 14 5 -2 6 -22 17 -44 23
-32 9 -39 15 -39 35 0 16 -8 28 -20 33 -12 5 -15 11 -9 15 6 4 13 31 16 61 5
52 24 79 42 61 5 -5 2 -22 -7 -39 -16 -33 -9 -39 22 -19 16 9 17 16 9 40 -6
17 -20 31 -34 34 -29 7 -32 34 -4 34 12 0 20 -7 20 -17 0 -15 2 -14 19 3 14
14 16 22 8 32 -9 11 -4 13 24 10 28 -2 35 1 37 18 2 16 -6 23 -45 35 -27 8
-49 21 -49 30 -1 7 -2 23 -3 34 -1 17 -3 18 -11 5 -8 -13 -10 -12 -10 3 0 10
-8 17 -20 17 -18 0 -25 -10 -21 -32 2 -14 -33 -8 -129 22 -52 16 -98 30 -101
30 -16 0 -17 -33 -3 -56 9 -13 14 -27 11 -30 -7 -7 -136 59 -167 85 -24 21
-24 22 -2 16 49 -14 18 4 -54 30 -42 15 -78 33 -80 40 -15 37 212 407 320 523
35 38 28 47 72 -91z m3060 66 c-10 -10 -19 5 -10 18 6 11 8 11 12 0 2 -7 1
-15 -2 -18z m837 -75 c-23 -41 -150 -171 -183 -187 -14 -7 -4 5 23 29 26 23
70 76 98 116 27 41 56 74 65 74 13 0 13 -5 -3 -32z m-818 12 c-3 -5 -14 -10
-23 -10 -15 0 -15 2 -2 10 20 13 33 13 25 0z m-2361 -55 c3 -8 1 -15 -4 -15
-6 0 -10 7 -10 15 0 8 2 15 4 15 2 0 6 -7 10 -15z m-29 -45 c3 -6 -1 -7 -9 -4
-18 7 -21 14 -7 14 6 0 13 -4 16 -10z m1051 -19 c17 -11 15 -12 -11 -6 -146
28 -234 11 -313 -60 -27 -25 -54 -45 -58 -45 -14 0 80 91 111 107 58 31 224
33 271 4z m-1052 -17 c3 -8 2 -12 -4 -9 -6 3 -10 10 -10 16 0 14 7 11 14 -7z
m1031 -21 c8 -5 -32 -8 -88 -8 -91 0 -108 -3 -157 -27 -30 -15 -55 -26 -57
-25 -5 5 69 50 104 63 39 15 170 12 198 -3z m33 -89 c15 -8 18 -13 7 -9 -40
13 -111 17 -135 7 -24 -9 -24 -9 13 -21 42 -14 60 -53 36 -76 -19 -18 -103
-45 -160 -52 -42 -5 -48 -3 -54 17 -5 16 0 29 17 47 27 31 4 20 -41 -19 -19
-16 -29 -33 -25 -39 4 -8 3 -9 -4 -5 -30 18 -43 -117 -18 -177 7 -18 34 -60
60 -92 l47 -60 -48 51 c-62 65 -96 134 -101 204 -7 105 70 204 185 236 59 17
183 11 221 -12z m-1468 -44 c8 -5 11 -10 5 -10 -5 0 -17 5 -25 10 -8 5 -10 10
-5 10 6 0 17 -5 25 -10z m4043 -4 c4 -10 -33 -38 -126 -92 -140 -83 -313 -174
-365 -192 -30 -10 -32 -9 -32 11 0 17 13 27 58 46 80 34 284 141 367 195 77
49 90 53 98 32z m122 -247 c25 -59 45 -111 45 -117 0 -5 -44 -29 -97 -52 -54
-23 -102 -47 -108 -52 -9 -8 48 14 169 67 21 9 42 13 46 8 10 -10 49 -136 80
-256 27 -103 35 -92 -93 -137 -80 -28 -144 -47 -342 -100 -98 -26 -308 -61
-316 -52 -4 4 -12 24 -19 45 -6 21 -21 43 -32 50 -11 7 -26 27 -33 45 -15 35
-47 52 -100 52 -20 0 -44 9 -62 24 -42 35 -128 60 -213 61 -54 1 -87 7 -120
23 -25 12 -60 22 -79 22 l-34 0 24 26 c40 43 191 160 237 183 38 19 45 20 70
8 95 -49 268 -15 317 61 11 17 25 31 31 32 21 0 347 168 434 223 l85 53 32
-55 c18 -31 53 -104 78 -162z m-1065 121 c-66 -44 -346 -99 -397 -78 -11 4 -1
7 28 7 70 1 223 30 297 56 73 26 95 30 72 15z m-3727 -61 c34 -18 76 -42 92
-54 35 -27 147 -85 164 -85 6 0 11 11 11 24 l0 23 75 -24 c51 -17 75 -30 75
-40 0 -13 -8 -14 -42 -9 -23 4 -47 14 -54 24 -10 14 -14 14 -29 2 -16 -14 -15
-15 11 -27 16 -7 41 -12 57 -13 27 0 38 -22 17 -35 -5 -3 -10 -19 -10 -34 0
-25 -5 -29 -37 -35 -65 -10 -168 -7 -253 10 -45 8 -87 13 -93 11 -7 -2 32 -12
86 -22 109 -20 338 -17 345 4 9 27 20 7 15 -26 -9 -56 -22 -85 -34 -78 -6 4
-13 -2 -16 -14 -3 -12 -9 -21 -14 -21 -19 0 -65 22 -76 36 -9 12 -16 13 -33 4
-18 -10 -25 -7 -51 22 -30 31 -32 32 -45 13 -16 -22 -18 -35 -4 -35 6 0 10 -8
10 -17 0 -10 7 -27 15 -37 8 -11 15 -29 15 -40 0 -40 58 -143 116 -205 l58
-63 -129 6 c-173 9 -269 22 -383 52 -52 14 -99 23 -105 21 -15 -5 183 -56 278
-72 l80 -13 -66 -1 c-114 -2 -230 18 -271 46 -21 14 -38 31 -38 39 0 7 -5 14
-10 16 -18 6 69 381 95 406 3 3 29 -4 58 -17 123 -53 250 -102 254 -97 6 6 4
7 -127 60 -58 24 -77 36 -60 37 16 1 9 4 -20 10 -25 5 -55 12 -67 15 -29 6
-29 27 -2 96 29 76 71 168 76 168 2 0 32 -14 66 -31z m4051 -61 l28 -26 -53
-12 c-93 -20 -157 -24 -174 -10 -8 7 -15 8 -15 2 0 -5 7 -15 15 -22 8 -7 15
-18 15 -24 0 -6 -7 -3 -14 7 -15 20 -41 21 -120 6 -45 -9 -60 -18 -71 -38 -14
-25 -14 -25 -15 -4 0 26 35 47 94 58 29 6 43 16 58 41 11 19 30 36 42 39 11 2
30 6 41 9 11 3 47 4 81 2 49 -1 65 -6 88 -28z m47 -5 c13 -16 12 -17 -3 -4
-10 7 -18 15 -18 17 0 8 8 3 21 -13z m-928 -75 c-28 -61 -134 -188 -155 -188
-6 0 10 22 35 49 48 52 122 158 133 193 3 11 8 17 11 14 3 -3 -8 -33 -24 -68z
m-2703 -23 c0 -8 -7 -15 -16 -15 -9 0 -12 -5 -8 -12 4 -6 3 -8 -4 -5 -14 9 -3
47 14 47 8 0 14 -7 14 -15z m117 -17 c-3 -8 -6 -5 -6 6 -1 11 2 17 5 13 3 -3
4 -12 1 -19z m-22 -11 c-4 -8 -17 -17 -29 -19 -18 -4 -22 -1 -19 13 3 10 15
19 27 21 27 5 28 4 21 -15z m-140 -26 c0 -12 7 -26 15 -32 12 -8 11 -9 -6 -4
-15 4 -24 0 -28 -11 -5 -14 -9 -15 -19 -5 -9 9 -9 14 2 20 7 5 11 13 7 19 -9
15 4 44 18 39 6 -2 11 -14 11 -26z m675 -7 c47 -12 76 -23 65 -23 -25 -1 -163
36 -184 50 -12 7 -10 8 9 3 14 -4 63 -17 110 -30z m-640 6 c0 -5 -2 -10 -4
-10 -3 0 -8 5 -11 10 -3 6 -1 10 4 10 6 0 11 -4 11 -10z m1650 -3 c0 -2 -10
-12 -22 -23 l-23 -19 19 23 c18 21 26 27 26 19z m-887 -34 c-7 -2 -19 -2 -25
0 -7 3 -2 5 12 5 14 0 19 -2 13 -5z m1684 -69 c-3 -3 -12 -4 -19 -1 -8 3 -5 6
6 6 11 1 17 -2 13 -5z m-87 -35 c-15 -27 -37 -34 -55 -19 -28 23 -19 30 53 39
10 1 10 -4 2 -20z m-2043 -4 c29 -21 36 -53 12 -65 -10 -6 -19 -7 -19 -2 0 5
-23 10 -51 11 -32 1 -57 8 -67 18 -15 15 -17 14 -22 -8 -4 -16 -8 -20 -14 -11
-4 7 -4 21 -1 32 11 35 122 53 162 25z m1572 -21 c6 -5 -30 -44 -51 -55 -13
-7 -26 -2 -53 22 -19 17 -35 35 -35 41 0 9 129 1 139 -8z m857 -33 c-11 -17
-28 -13 -24 7 1 9 -1 24 -6 32 -5 8 1 5 14 -6 12 -12 19 -27 16 -33z m-611 9
c-16 -16 -34 -30 -40 -30 -6 0 -24 14 -40 30 l-29 30 69 0 69 0 -29 -30z m315
15 c0 -9 -102 -57 -219 -102 -64 -25 -122 -50 -130 -57 -11 -8 -13 -8 -7 1 5
9 2 11 -8 7 -9 -3 -14 -10 -11 -14 10 -17 -24 -28 -165 -54 -210 -40 -304 -43
-400 -12 l-45 14 80 1 c79 1 264 26 420 56 99 19 303 85 398 130 73 34 87 39
87 30z m-872 -27 c-4 -32 -28 -33 -63 -3 l-30 24 48 1 c44 0 48 -2 45 -22z
m692 -7 c0 -14 -36 -41 -55 -41 -15 0 -2 41 17 54 24 17 38 13 38 -13z m450
-88 c197 -208 234 -269 235 -384 0 -66 -3 -81 -28 -117 -26 -40 -99 -102 -119
-102 -5 0 5 12 24 27 42 35 54 50 77 93 33 61 35 102 12 180 -24 79 -55 121
-220 299 -58 63 -97 109 -85 103 12 -6 58 -51 104 -99z m266 92 c-1 -8 -5 -17
-8 -21 -4 -3 -4 -12 -1 -20 3 -8 0 -14 -6 -14 -14 0 -14 25 -1 51 13 23 19 25
16 4z m-1556 -4 c0 -4 -5 -22 -11 -39 l-11 -32 -30 18 c-50 29 -54 40 -16 51
43 12 68 13 68 2z m-1611 -22 c66 -14 121 -55 121 -88 -1 -33 -25 -159 -32
-167 -3 -3 -25 14 -48 38 -41 43 -103 156 -115 212 -5 24 -3 28 11 22 10 -4
38 -11 63 -17z m3096 12 c16 -7 13 -9 -19 -15 -29 -6 -43 -4 -55 8 -14 15 -12
16 19 15 19 0 44 -4 55 -8z m-735 -20 c0 -10 -9 -21 -20 -24 -22 -6 -27 12 -8
31 17 17 28 15 28 -7z m-1827 0 c14 -6 29 -23 35 -40 14 -39 7 -40 -13 -1 -11
21 -23 30 -40 30 -14 0 -25 5 -25 10 0 12 12 13 43 1z m2454 3 c-3 -3 -12 -4
-19 -1 -8 3 -5 6 6 6 11 1 17 -2 13 -5z m345 -24 c59 -29 61 -31 23 -24 -22 3
-55 15 -73 25 -19 11 -38 17 -43 14 -5 -4 -9 -1 -9 4 0 19 36 12 102 -19z
m-1828 4 c4 -9 4 -19 2 -22 -8 -7 -66 19 -66 29 0 17 58 10 64 -7z m708 -9
c14 -31 12 -33 -51 -50 -61 -16 -67 -5 -25 44 31 38 60 40 76 6z m-2077 5 c3
-5 -1 -10 -9 -10 -9 0 -16 5 -16 10 0 6 4 10 9 10 6 0 13 -4 16 -10z m1265
-14 c0 -19 -30 -29 -47 -15 -11 10 -11 14 -1 20 20 13 48 10 48 -5z m664 -17
c10 -17 16 -32 14 -34 -7 -7 -200 -36 -205 -31 -9 9 30 57 59 72 33 17 50 11
42 -14 -4 -12 -2 -11 7 3 28 45 58 46 83 4z m-777 15 c-3 -3 -12 -4 -19 -1 -8
3 -5 6 6 6 11 1 17 -2 13 -5z m990 -5 c-14 -8 -22 -8 -30 0 -8 8 -3 11 19 11
25 -1 27 -2 11 -11z m1256 -3 c43 -19 104 -72 94 -82 -4 -5 -14 -4 -22 1 -7 6
-41 29 -75 53 -61 41 -60 55 3 28z m-3321 -28 c-15 -15 -26 -4 -18 18 5 13 9
15 18 6 9 -9 9 -15 0 -24z m1613 -8 c12 -19 -12 -10 -31 11 -19 22 -19 22 3
10 12 -6 25 -16 28 -21z m1796 11 c13 -11 22 -22 19 -24 -3 -3 -18 6 -35 19
-16 13 -25 24 -19 24 7 0 22 -9 35 -19z m-2105 -28 c28 -28 29 -29 8 -37 -8
-3 -13 -2 -10 3 3 4 -8 18 -24 30 -32 23 -40 44 -14 34 9 -3 27 -17 40 -30z
m141 15 c40 -45 39 -49 -16 -47 -54 3 -61 12 -41 50 14 25 32 24 57 -3z m141
-11 c33 -30 28 -37 -28 -37 -55 0 -66 16 -34 51 18 20 26 18 62 -14z m976 11
c16 -27 0 -43 -63 -62 -49 -15 -64 -16 -76 -6 -28 23 -10 68 32 81 30 9 98 1
107 -13z m-1339 -8 c11 -13 14 -20 6 -20 -18 0 -51 19 -51 30 0 17 26 11 45
-10z m-75 0 c8 -5 11 -10 5 -10 -5 0 -17 5 -25 10 -8 5 -10 10 -5 10 6 0 17
-5 25 -10z m1828 -6 c32 -22 93 -144 72 -144 -6 0 -10 6 -10 13 0 8 -18 41
-39 75 -30 46 -46 62 -68 65 -27 4 -27 4 -3 6 14 0 36 -6 48 -15z m250 -11
c-21 -2 -57 -2 -80 0 -24 2 -7 4 37 4 44 0 63 -2 43 -4z m311 -9 c31 -7 56
-35 49 -56 -3 -7 -19 2 -38 20 -30 30 -59 47 -32 20 7 -7 12 -17 12 -22 -1 -6
-9 -1 -19 11 -10 12 -31 23 -47 26 -26 4 -25 4 7 6 20 0 51 -2 68 -5z m-216
-11 c3 -5 -36 -7 -86 -7 l-92 2 92 -7 c51 -3 97 -11 103 -17 9 -9 4 -10 -16
-6 -19 3 -25 1 -20 -7 4 -6 3 -11 -3 -11 -5 0 -13 4 -16 10 -3 5 -27 9 -54 9
-57 -2 -87 7 -95 26 -4 13 10 15 89 15 51 0 96 -3 98 -7z m1147 -18 c0 -18 -6
-26 -22 -29 -13 -3 -54 -12 -93 -20 -166 -37 -344 -59 -218 -27 26 7 107 32
178 55 72 24 136 44 143 45 7 0 12 -10 12 -24z m-1006 -79 c14 -44 24 -81 22
-83 -4 -4 -56 145 -56 161 0 18 8 0 34 -78z m23 78 c-3 -3 -12 -4 -19 -1 -8 3
-5 6 6 6 11 1 17 -2 13 -5z m-66 -78 c5 -31 8 -63 6 -69 -2 -7 -8 13 -12 43
-4 30 -12 66 -17 80 -6 18 -6 22 1 15 6 -6 16 -37 22 -69z m-2135 48 c19 -15
19 -16 -1 -9 -11 4 -36 9 -55 11 l-35 4 35 -13 35 -14 -57 -12 c-33 -7 -62
-19 -68 -29 -8 -14 -9 -13 -10 10 0 53 109 90 156 52z m-582 -12 c-17 -9 -49
-27 -70 -38 -48 -26 -120 -41 -108 -23 5 9 -1 10 -22 5 l-29 -7 20 20 c20 21
159 59 215 60 24 0 24 -1 -6 -17z m308 -11 c70 -34 134 -109 158 -188 19 -63
20 -102 1 -52 -17 47 -54 120 -57 116 -2 -2 7 -31 21 -65 30 -73 32 -95 8 -90
-11 2 -25 24 -38 58 -17 49 -20 52 -26 30 -6 -21 -7 -21 -8 -5 -5 77 -124 216
-183 215 -7 -1 1 -8 17 -17 47 -24 85 -64 113 -118 22 -44 25 -62 25 -145 -1
-96 -15 -156 -33 -145 -5 3 -10 -3 -10 -15 0 -12 -4 -18 -10 -15 -5 3 -10 1
-10 -5 0 -19 -69 -81 -113 -100 -48 -22 -68 -24 -120 -9 -40 11 -127 86 -127
110 0 7 14 -3 31 -24 81 -98 192 -102 288 -8 41 40 51 57 61 104 19 93 -9 201
-70 271 -37 42 -60 56 -110 67 -58 13 -109 -6 -166 -65 -53 -54 -76 -105 -94
-204 -9 -44 -9 -43 -6 20 7 129 95 262 194 292 74 22 207 16 264 -13z m1205
17 c19 -25 73 -169 68 -178 -8 -13 -35 -13 -35 0 0 6 -7 10 -15 10 -9 0 -44
12 -78 26 -34 15 -110 39 -170 54 -59 15 -109 29 -112 31 -3 4 138 41 240 62
42 9 93 6 102 -5z m-760 -13 c44 -18 37 -32 -8 -16 -70 24 -139 -2 -139 -53 0
-17 -2 -18 -10 -6 -15 24 -12 39 15 65 29 30 86 33 142 10z m1197 0 c-18 -14
-18 -14 9 -15 33 0 67 -32 66 -62 l-2 -23 -4 23 c-3 12 -12 22 -21 22 -14 0
-14 -2 -3 -9 19 -12 6 -58 -18 -66 -10 -3 -21 -14 -24 -24 -7 -26 -111 -44
-119 -20 -4 12 -168 29 -168 18 0 -4 -9 -5 -20 -2 -18 5 -18 7 -5 33 16 32 73
83 115 105 41 21 95 33 159 34 50 1 53 0 35 -14z m1826 11 c0 -3 -39 -27 -87
-54 -314 -177 -525 -276 -656 -307 -66 -15 -77 -11 -77 33 0 20 5 22 49 22 35
0 51 4 55 16 19 50 -9 100 -50 90 -22 -6 -24 -3 -24 32 l0 38 118 16 c338 48
628 98 670 117 1 1 2 -1 2 -3z m-3380 -21 c0 -9 -6 -12 -15 -9 -8 4 -12 10 -9
15 8 14 24 10 24 -6z m-629 -29 c-13 -28 -17 -30 -19 -13 -3 16 20 47 34 47 1
0 -6 -15 -15 -34z m2718 17 c7 -15 41 -162 41 -180 0 -2 -6 2 -14 10 -8 8 -13
23 -10 33 3 11 -3 46 -13 79 -16 52 -22 60 -43 60 -22 0 -25 -4 -23 -35 2 -35
2 -35 -8 -7 -6 15 -8 34 -5 42 8 21 63 19 75 -2z m431 8 c0 -5 -8 -12 -17 -14
-14 -4 -14 -5 3 -6 16 -1 23 -9 26 -31 7 -45 -3 -45 -29 1 -28 50 -29 59 -3
59 11 0 20 -4 20 -9z m-2194 -15 c18 -14 18 -15 -9 -21 -15 -4 -39 -4 -53 -1
-21 6 -24 9 -14 21 16 19 51 19 76 1z m3064 -11 c0 -16 -38 -29 -66 -23 -15 2
-11 8 16 25 35 22 50 22 50 -2z m-5232 -1 c31 -21 28 -31 -8 -26 -21 3 -30 10
-30 23 0 23 9 24 38 3z m2368 -9 c-11 -8 -24 -15 -29 -15 -4 0 -6 -3 -4 -7 3
-5 -16 -9 -41 -10 -31 -1 -51 -8 -59 -19 -12 -17 -13 -16 -13 3 0 11 6 26 13
32 16 13 81 29 122 30 28 0 29 0 11 -14z m-376 -14 c0 -4 -18 -5 -40 -3 -22 2
-38 7 -36 11 6 9 76 1 76 -8z m-930 2 c0 -5 -12 -16 -25 -26 -29 -21 -36 -2
-7 19 19 15 32 18 32 7z m44 -28 c5 -22 4 -26 -4 -15 -5 8 -10 24 -10 34 0 26
6 18 14 -19z m1497 19 c155 -29 339 -93 339 -118 0 -24 -12 -24 -58 -4 -76 33
-182 65 -262 78 -51 9 -69 15 -55 20 13 5 3 9 -35 13 -79 10 -112 9 -105 -3 3
-5 1 -10 -4 -10 -6 0 -11 5 -11 12 0 6 -9 3 -20 -7 -20 -18 -27 -11 -12 11 18
28 103 31 223 8z m1199 -8 c0 -7 2 -29 5 -47 4 -28 3 -26 -10 11 -18 54 -17
50 -5 50 6 0 10 -6 10 -14z m-3662 -63 c118 -80 288 -155 405 -178 33 -7 33
-8 7 -173 -11 -70 -21 -142 -22 -161 -2 -26 -10 -39 -40 -58 -46 -31 -216 -52
-415 -53 l-131 0 -8 33 c-18 82 -3 571 21 643 8 25 113 -6 183 -53z m5096 52
c17 -44 28 -270 23 -470 -5 -215 -35 -475 -58 -499 -9 -10 -120 17 -185 46
l-41 18 14 67 c7 38 22 115 33 173 31 173 30 171 77 215 23 23 43 48 43 56 0
7 -11 -3 -25 -24 -33 -48 -52 -49 -47 -2 4 31 8 35 40 41 60 11 80 26 71 52
-10 26 -34 29 -47 6 -6 -10 -23 -16 -48 -17 -21 0 -45 -7 -52 -14 -7 -6 -20
-9 -28 -6 -9 3 -20 0 -25 -8 -8 -14 -12 -15 -44 -18 -18 -1 -20 -41 -2 -41 6
0 26 -28 44 -63 l32 -62 -15 -70 c-8 -38 -21 -108 -30 -155 -8 -47 -17 -91
-19 -99 -15 -41 25 -67 173 -111 44 -14 72 -27 72 -36 0 -17 -35 -149 -61
-231 l-20 -62 -34 37 c-20 22 -43 67 -58 112 -26 77 -94 230 -102 230 -3 0 0
-12 5 -26 27 -69 0 -57 -54 25 -26 38 -71 94 -102 125 -52 53 -61 76 -29 76
15 0 106 -97 143 -152 13 -21 27 -38 29 -38 8 0 -31 60 -84 131 -29 39 -53 72
-53 73 0 2 32 7 71 10 71 7 77 11 81 56 3 22 -3 26 -42 37 -104 27 -228 11
-339 -44 -72 -35 -186 -149 -228 -228 -18 -33 -33 -53 -33 -44 0 22 67 130
120 191 l45 53 -42 -34 c-24 -19 -43 -37 -43 -40 -1 -11 -51 -63 -56 -58 -3 2
7 19 21 36 15 17 22 31 16 31 -6 0 -11 -4 -11 -9 0 -5 -9 -11 -20 -14 -15 -4
-20 0 -21 16 0 22 0 22 -9 0 -13 -32 -23 -29 -16 5 4 15 9 52 11 82 3 30 6 61
7 68 1 7 10 10 22 7 12 -3 15 -2 9 1 -18 8 -16 24 1 24 8 0 17 4 20 9 4 5 -10
8 -30 6 l-37 -2 24 18 c37 28 128 49 211 49 82 0 248 -37 372 -84 120 -46 129
-25 11 27 -136 59 -231 80 -365 81 -136 1 -195 -12 -265 -60 l-36 -24 -26 31
c-26 30 -29 31 -87 26 -34 -3 -72 -9 -86 -12 l-25 -6 24 11 c13 6 81 22 150
35 181 36 201 43 201 73 0 13 9 35 20 49 11 14 20 31 20 37 0 6 53 28 117 49
126 41 293 117 473 214 102 56 121 63 171 63 42 0 58 -4 63 -15z m-4244 -1 c0
-15 -22 -44 -30 -39 -6 4 -5 14 3 25 11 19 27 27 27 14z m642 -20 c41 -30 61
-82 72 -181 2 -18 0 -30 -4 -28 -4 3 -10 -9 -13 -25 -9 -42 -56 -109 -88 -126
-16 -8 -47 -14 -70 -14 -37 0 -48 6 -86 46 -38 39 -42 41 -29 16 23 -45 72
-75 120 -75 60 0 101 26 136 86 35 60 39 56 10 -11 -28 -65 -76 -97 -145 -96
-105 2 -167 86 -168 228 -1 48 4 89 12 101 11 19 12 18 6 -5 -6 -23 -5 -23 13
5 13 21 16 32 8 37 -8 5 -7 8 2 8 7 0 31 14 55 31 37 27 48 30 93 27 29 -3 62
-13 76 -24z m455 20 c-3 -3 -12 -4 -19 -1 -8 3 -5 6 6 6 11 1 17 -2 13 -5z
m406 -1 c-7 -2 -19 -2 -25 0 -7 3 -2 5 12 5 14 0 19 -2 13 -5z m-2105 -14
c168 0 222 -3 222 -12 0 -7 -7 -52 -16 -100 l-16 -89 -47 7 c-91 13 -361 139
-411 192 -14 14 -12 15 15 8 17 -4 130 -7 253 -6z m3489 -11 c-3 -8 -6 -5 -6
6 -1 11 2 17 5 13 3 -3 4 -12 1 -19z m530 -40 c-2 -13 -4 -3 -4 22 0 25 2 35
4 23 2 -13 2 -33 0 -45z m-3475 21 c-3 -21 -7 -27 -13 -18 -4 7 -3 21 2 31 14
25 16 23 11 -13z m388 27 c0 -31 -156 -300 -212 -365 -16 -18 -37 -49 -46 -67
l-16 -34 -95 0 c-97 0 -216 -22 -300 -56 -23 -9 -44 -14 -46 -12 -5 5 24 208
45 317 11 60 17 66 69 76 20 3 66 21 102 40 61 30 68 32 83 17 17 -18 86 -18
118 -1 23 13 23 9 -7 -47 -29 -55 -30 -65 -10 -104 14 -26 21 -30 58 -30 55 0
84 21 113 84 28 59 30 102 8 127 -15 17 -13 18 23 25 21 3 43 10 48 14 14 11
65 23 65 16z m3015 -36 c3 -6 -4 -10 -17 -10 -18 0 -20 2 -8 10 19 12 18 12
25 0z m-220 -10 c-43 -11 -146 -11 -120 0 11 5 49 8 85 8 50 0 58 -2 35 -8z
m-2960 -19 c3 -5 -5 -21 -17 -34 -13 -13 -41 -43 -62 -66 -41 -44 -68 -44 -46
0 40 77 106 130 125 100z m1505 -22 c133 -34 206 -76 318 -184 56 -54 102
-102 102 -108 0 -6 -6 -4 -12 5 -30 39 -163 137 -172 128 -6 -6 -22 -10 -37
-10 -14 0 -38 -9 -53 -21 -14 -11 -26 -17 -26 -12 0 4 -5 1 -10 -7 -5 -8 -10
-38 -10 -66 0 -43 5 -55 31 -82 18 -18 25 -30 17 -27 -9 4 -20 -4 -28 -20 -12
-23 -12 -28 0 -35 8 -6 12 -10 8 -10 -3 0 -14 -3 -24 -7 -13 -5 -15 -3 -9 7 5
8 3 11 -6 8 -8 -3 -13 -11 -11 -17 3 -16 -38 12 -69 46 -13 16 -24 35 -24 43
0 8 -6 15 -14 15 -23 0 -74 111 -79 170 -5 64 15 108 64 137 19 11 34 22 34
24 0 2 -18 4 -39 4 -81 0 -140 -85 -141 -200 0 -115 34 -207 117 -313 25 -32
43 -60 40 -63 -10 -11 -80 85 -118 161 -81 166 -72 334 22 408 l32 25 -42 7
c-22 4 -38 11 -35 16 7 12 71 4 174 -22z m523 24 c-7 -2 -19 -2 -25 0 -7 3 -2
5 12 5 14 0 19 -2 13 -5z m-99 -37 c-8 -26 -34 -56 -34 -38 0 18 -18 14 -23
-5 -3 -10 -5 -4 -6 14 -1 22 6 36 20 47 28 19 52 10 43 -18z m1291 -105 l5
-66 -14 70 c-7 39 -16 86 -20 105 l-6 35 15 -39 c8 -21 17 -68 20 -105z
m-2122 118 c23 -5 53 -19 67 -30 l25 -19 -40 14 c-22 7 -58 16 -80 19 -39 6
-38 6 18 -19 31 -15 57 -31 57 -36 0 -4 -13 -2 -28 6 -36 19 -135 37 -145 27
-5 -5 13 -11 38 -13 26 -3 51 -10 57 -16 7 -7 -2 -8 -29 -1 -24 5 -53 5 -72
-1 -26 -7 -31 -6 -31 9 0 24 32 52 72 61 46 11 45 11 91 -1z m-226 -76 c36
-61 33 -92 -16 -167 -48 -74 -90 -115 -51 -51 13 22 34 54 45 70 42 58 39 84
-19 169 -14 21 -26 43 -26 49 0 17 41 -26 67 -70z m963 69 c0 -5 -7 -17 -15
-28 -14 -19 -14 -19 -15 2 0 11 3 24 7 27 9 10 23 9 23 -1z m230 -17 c11 -14
10 -14 -12 -6 -35 13 -50 1 -31 -24 15 -18 15 -19 9 -1 -6 16 -4 17 9 6 12
-10 13 -15 4 -20 -7 -5 -8 -13 -4 -21 6 -9 1 -8 -11 2 -19 17 -49 15 -38 -2 3
-5 0 -9 -5 -9 -6 0 -11 5 -11 10 0 6 -6 10 -14 10 -20 0 -8 37 17 55 28 19 71
19 87 0z m1263 -9 c7 -18 -1 -26 -25 -26 -18 0 -25 20 -11 33 11 12 31 8 36
-7z m-2656 -18 c-3 -8 -6 -5 -6 6 -1 11 2 17 5 13 3 -3 4 -12 1 -19z m1499
-28 c-15 -5 -37 -17 -47 -26 -23 -21 -25 -7 -2 18 9 10 29 18 47 17 l31 -1
-29 -8z m894 2 c0 -4 -8 -8 -17 -9 -10 -1 -46 -6 -81 -11 -34 -5 -65 -5 -67
-1 -3 4 25 10 62 14 38 4 73 8 78 10 18 6 25 5 25 -3z m-1823 -34 c-3 -8 -6
-5 -6 6 -1 11 2 17 5 13 3 -3 4 -12 1 -19z m1631 -3 c-3 -3 -9 2 -12 12 -6 14
-5 15 5 6 7 -7 10 -15 7 -18z m-2774 -54 c-4 -14 -6 -30 -5 -35 1 -5 -3 -21
-9 -36 -9 -21 -18 -27 -46 -28 -20 -1 -34 2 -32 6 2 4 23 43 48 87 36 65 46
75 48 56 2 -12 0 -35 -4 -50z m633 53 c-3 -3 -12 -4 -19 -1 -8 3 -5 6 6 6 11
1 17 -2 13 -5z m1446 -9 c4 -8 2 -17 -3 -20 -4 -3 -10 1 -13 7 -3 9 -10 7 -21
-7 -15 -20 -15 -20 -16 1 0 11 3 24 7 27 12 12 41 7 46 -8z m-1120 -16 c13
-20 -76 -205 -102 -212 -23 -6 -101 14 -101 25 0 11 89 168 106 188 17 20 84
19 97 -1z m1837 -24 c0 -5 -5 -3 -10 5 -5 8 -10 20 -10 25 0 6 5 3 10 -5 5 -8
10 -19 10 -25z m-195 -90 c86 -129 147 -252 170 -341 35 -136 29 -288 -16
-376 -32 -63 -38 -51 -12 24 19 55 26 94 26 158 1 162 -41 287 -168 500 -47
77 -85 143 -85 145 0 15 17 -7 85 -110z m-1004 47 c-38 -31 -39 -61 -3 -77 28
-13 37 -38 20 -64 -18 -30 -34 -32 -62 -10 -34 26 -33 41 2 39 45 -3 49 0 15
15 -59 25 -54 89 9 111 51 19 55 16 19 -14z m90 18 c23 -13 51 -64 41 -75 -4
-5 -2 -5 4 -2 13 7 74 -135 74 -171 0 -26 17 -28 66 -7 26 11 34 11 31 2 -2
-6 -23 -17 -48 -24 -32 -10 -50 -23 -67 -48 -28 -44 -44 -44 -135 -1 -81 38
-115 61 -105 71 9 9 50 -4 44 -14 -3 -4 15 -18 40 -31 37 -18 48 -20 57 -10 9
10 9 11 0 6 -11 -6 -35 24 -32 41 3 20 -2 34 -11 28 -6 -4 -6 -15 1 -31 8 -22
7 -25 -7 -20 -8 3 -18 6 -20 6 -3 0 -3 4 0 9 3 5 -6 12 -21 16 -27 6 -26 7 22
33 91 49 110 142 39 184 -32 19 -33 21 -17 34 22 16 20 16 44 4z m484 -33
c-20 -11 -27 -5 -19 17 5 13 9 14 21 5 12 -11 12 -14 -2 -22z m-2155 -47 c-6
-11 -15 -18 -20 -15 -6 4 -3 20 7 38 13 24 18 28 21 15 2 -9 -2 -26 -8 -38z
m1050 -28 c-53 -94 -104 -166 -108 -153 -2 6 14 40 36 74 22 34 52 84 68 111
15 27 30 44 32 38 2 -7 -11 -38 -28 -70z m589 54 c44 -34 29 -114 -27 -150
-20 -12 -50 -26 -67 -30 -25 -6 -22 -2 22 29 57 38 73 71 54 111 -8 19 -16 24
-31 19 -22 -7 -28 13 -9 32 12 12 34 8 58 -11z m226 -39 c1 -20 -2 -24 -12
-15 -17 14 -17 51 0 46 6 -3 12 -16 12 -31z m-1890 -37 c43 -34 40 -37 -13
-14 -20 8 -54 16 -74 17 -60 2 -48 27 12 27 26 0 48 -9 75 -30z m925 0 c-6
-12 -14 -20 -17 -17 -2 3 1 14 8 26 7 11 15 18 17 16 2 -2 -2 -13 -8 -25z
m2860 4 c0 -10 -6 -14 -15 -10 -18 7 -18 4 -3 -29 8 -18 8 -29 1 -36 -8 -8
-17 0 -32 29 -26 51 -26 50 7 55 15 2 30 5 35 6 4 0 7 -6 7 -15z m-3815 -38
c39 -17 40 -18 17 -30 -12 -6 -19 -15 -16 -19 11 -10 -11 -8 -43 4 -15 6 -45
14 -66 17 -35 7 -37 8 -23 28 18 25 71 25 131 0z m2001 15 c-3 -5 5 -25 19
-45 35 -51 31 -58 -5 -10 -31 40 -38 64 -19 64 5 0 8 -4 5 -9z m514 -11 c8 -5
11 -10 7 -10 -5 0 -2 -7 6 -15 16 -16 32 -99 22 -116 -4 -6 -18 -8 -31 -5 -13
4 -24 2 -24 -3 0 -5 8 -12 18 -14 12 -3 10 -5 -8 -7 -14 -1 -28 -2 -32 -1 -5
0 -8 -3 -8 -9 0 -5 -16 -24 -35 -41 -23 -22 -46 -32 -72 -34 -21 -1 -45 -5
-55 -9 -13 -6 -17 1 -23 33 -8 49 -2 71 42 143 27 44 45 61 81 77 51 22 89 26
112 11z m-1672 -26 c21 -9 31 -18 24 -21 -9 -4 -10 -8 -2 -18 9 -10 3 -10 -27
1 -21 7 -47 13 -58 14 -28 1 -49 16 -41 29 10 16 61 14 104 -5z m1140 -36 c40
-54 66 -98 58 -98 -2 0 -14 15 -25 33 -11 17 -30 43 -43 57 -41 45 -51 60 -40
60 6 0 29 -24 50 -52z m-2110 -4 c188 -39 393 -153 526 -295 37 -39 65 -73 62
-76 -3 -3 -33 19 -68 49 -80 69 -134 108 -147 108 -6 0 -11 5 -11 12 0 6 -3 9
-6 5 -4 -3 -13 0 -21 8 -8 8 -20 15 -26 15 -7 -1 4 -14 23 -30 36 -32 28 -39
-18 -16 -40 19 -107 34 -213 46 -84 9 -103 15 -172 56 -150 87 -270 93 -422
20 -81 -38 -184 -110 -186 -129 -3 -24 3 -42 18 -59 14 -16 12 -21 -31 -59
-97 -87 -212 -240 -276 -366 l-38 -76 -36 111 c-33 101 -84 334 -101 455 l-6
47 140 0 c122 0 180 4 329 24 l33 5 -23 -32 c-22 -31 -22 -32 -1 -17 11 8 61
43 111 76 168 115 369 157 560 118z m960 -20 c30 -12 32 -15 19 -29 -8 -8 -17
-19 -19 -25 -2 -7 -19 -5 -48 5 -25 9 -67 19 -94 23 l-48 7 21 19 c18 17 21
17 15 3 -5 -14 -1 -17 22 -16 17 1 22 3 12 6 -21 5 -24 19 -5 26 17 7 86 -3
125 -19z m2162 -90 c20 -97 -9 -193 -76 -254 l-27 -25 26 35 c48 65 67 120 67
195 0 56 -5 79 -25 115 l-25 45 24 -27 c14 -16 29 -51 36 -84z m-1700 7 c13
-19 18 -31 11 -27 -16 10 -71 86 -71 99 0 10 18 -11 60 -72z m1608 19 c3 -21
2 -22 -12 -11 -19 16 -21 44 -3 39 6 -3 14 -15 15 -28z m-1928 -18 c0 -7 -4
-10 -10 -7 -5 3 -10 16 -10 28 0 18 2 19 10 7 5 -8 10 -21 10 -28z m-177 -1
c21 -13 36 -25 35 -27 -2 -2 -32 6 -67 16 -70 22 -122 25 -152 10 -24 -13 -25
-2 -1 17 28 22 139 13 185 -16z m1386 -47 c-45 -125 -34 -295 26 -402 14 -25
18 -39 10 -32 -28 23 -65 115 -75 188 -12 87 0 191 31 263 29 67 34 57 8 -17z
m-1789 40 c138 -8 213 -22 120 -23 -105 0 -272 17 -283 29 -10 10 -7 11 13 7
14 -3 81 -9 150 -13z m378 -36 c41 -25 42 -34 0 -12 -17 9 -50 22 -72 30 l-41
14 40 -6 c22 -3 55 -15 73 -26z m420 -39 c18 -18 32 -29 32 -25 0 4 11 -6 25
-22 52 -62 86 -183 66 -233 -9 -21 -10 -18 -10 21 -2 72 -83 221 -150 275 -54
43 -56 46 -25 31 16 -8 45 -29 62 -47z m-790 44 c-10 -2 -28 -2 -40 0 -13 2
-5 4 17 4 22 1 32 -1 23 -4z m533 -50 c-9 -15 -10 -13 -11 13 0 17 3 34 8 38
11 12 14 -32 3 -51z m-468 40 c-7 -2 -19 -2 -25 0 -7 3 -2 5 12 5 14 0 19 -2
13 -5z m255 -23 c46 -21 46 -21 9 -73 -10 -16 -17 -31 -14 -34 3 -3 -3 -14
-13 -26 -18 -19 -24 -19 -72 -9 -29 7 -63 9 -76 6 -21 -6 -19 -1 19 67 23 41
47 77 53 81 18 13 49 9 94 -12z m182 -81 c-15 -27 -19 -22 -12 20 4 27 7 30
14 18 5 -11 5 -25 -2 -38z m-1497 -2 c-17 -17 -34 -42 -38 -54 -3 -13 -11 -23
-16 -23 -6 0 -5 10 2 23 12 21 11 21 -7 7 -67 -51 -169 -149 -194 -186 -17
-23 -34 -60 -39 -81 -9 -36 -9 -35 -10 25 -1 36 5 74 13 90 15 29 96 109 157
155 42 32 151 88 158 81 3 -2 -9 -19 -26 -37z m230 23 c36 -11 82 -48 72 -59
-3 -2 -13 5 -21 18 -10 14 -22 20 -32 16 -8 -3 -19 0 -24 7 -6 10 -13 8 -27
-9 -19 -23 -48 -33 -35 -12 4 8 -3 9 -25 4 -20 -4 -31 -3 -31 4 0 6 10 12 23
12 20 2 20 2 -3 7 l-25 5 25 8 25 8 -25 -2 c-21 -2 -25 -7 -25 -34 0 -18 -4
-34 -10 -35 -5 0 -14 -2 -20 -2 -5 -1 -20 -7 -32 -14 -21 -11 -23 -10 -23 8 0
11 15 36 33 56 31 34 34 35 87 30 30 -3 72 -10 93 -16z m2791 14 c31 -12 15
-19 -43 -19 -42 0 -64 -5 -78 -17 -22 -20 -38 -24 -27 -7 22 36 104 60 148 43z
m-1895 -20 c8 -8 -29 -75 -45 -81 -10 -4 -31 9 -60 38 -24 24 -44 46 -44 50 0
6 141 0 149 -7z m1891 -24 c21 -7 17 -8 -22 -9 -25 -1 -55 -4 -65 -7 -12 -5
-15 -4 -8 4 19 19 57 24 95 12z m-2745 -20 c8 -13 -15 -13 -35 0 -12 8 -11 10
7 10 12 0 25 -4 28 -10z m2755 -20 c11 -7 1 -10 -35 -10 -36 0 -46 3 -35 10 8
5 24 10 35 10 11 0 27 -5 35 -10z m-1582 -27 c-41 -17 -61 -52 -58 -105 1 -18
2 -43 1 -56 -1 -28 -43 -72 -68 -71 -17 0 -17 1 1 12 49 31 56 45 56 117 0 63
3 72 27 95 16 14 39 25 53 24 22 -1 21 -3 -12 -16z m-211 -19 c22 -14 22 -15
7 -47 -26 -55 -44 -60 -103 -29 -52 28 -60 44 -37 75 18 23 34 22 38 -5 4 -29
28 -36 28 -8 0 12 -4 18 -10 15 -5 -3 -10 1 -10 9 0 12 7 14 33 10 17 -4 42
-13 54 -20z m-937 -19 c-15 -9 -38 -12 -57 -9 -18 4 -33 4 -33 0 0 -3 15 -10
33 -15 25 -7 27 -9 10 -10 -13 -1 -22 -4 -20 -9 1 -4 -18 -28 -44 -52 -25 -25
-62 -65 -83 -90 -20 -25 -34 -36 -30 -25 4 11 19 30 33 42 22 20 23 23 8 29
-12 4 -23 0 -32 -12 -12 -15 -16 -16 -23 -6 -7 11 -11 10 -17 -5 -7 -17 -7
-17 -15 2 -4 11 -10 41 -14 68 -6 35 -4 47 6 48 7 1 0 5 -17 8 l-30 8 40 11
c54 16 165 29 245 30 61 1 64 0 40 -13z m2287 -31 c-3 -3 -12 -4 -19 -1 -8 3
-5 6 6 6 11 1 17 -2 13 -5z m-2632 -41 c4 -21 15 -71 26 -112 11 -40 18 -75
16 -78 -8 -7 -46 108 -53 157 -7 53 -10 56 -34 39 -13 -9 -12 -10 3 -5 9 3 17
0 17 -6 0 -6 -11 -8 -30 -5 -23 5 -28 3 -24 -8 4 -10 15 -13 33 -10 22 5 23 4
6 -4 -17 -8 -18 -10 -2 -10 13 -1 17 -9 16 -33 0 -27 -2 -29 -8 -13 -5 11 -7
23 -5 27 3 4 -6 10 -18 14 -23 7 -35 4 -31 -6 3 -10 -41 -5 -60 6 -16 9 -17
12 -3 23 15 13 124 60 138 61 4 0 10 -17 13 -37z m3656 17 c10 -6 19 -21 19
-33 -1 -22 -1 -22 -18 -2 -22 27 -46 26 -50 -2 -2 -15 5 -26 25 -37 15 -8 23
-15 18 -16 -6 0 -21 7 -33 16 -31 21 -32 84 -1 84 11 0 29 -5 40 -10z m-2458
-26 c48 -32 43 -40 -9 -15 -21 11 -50 24 -64 30 l-25 10 30 0 c17 1 47 -10 68
-25z m-505 -26 c31 -12 28 -13 -60 -14 -391 -4 -675 -430 -636 -958 14 -199
43 -285 144 -431 235 -339 530 -376 829 -104 59 55 64 58 36 22 -86 -107 -238
-203 -357 -223 -118 -20 -246 10 -334 80 -42 34 -59 39 -39 13 11 -15 9 -14
-9 1 -12 11 -20 22 -17 24 9 9 -47 62 -59 55 -6 -3 -8 -3 -4 2 4 4 -12 33 -36
64 -114 147 -162 297 -173 531 -15 337 87 630 281 807 140 128 314 181 434
131z m2957 12 c3 -5 1 -10 -4 -10 -6 0 -11 5 -11 10 0 6 2 10 4 10 3 0 8 -4
11 -10z m-2475 -26 c36 -20 79 -57 57 -50 -13 4 -19 -1 -24 -24 -3 -16 -9 -27
-14 -25 -4 3 -15 -7 -23 -22 -7 -16 -23 -37 -35 -47 -20 -18 -23 -18 -58 -3
-21 9 -50 19 -65 24 l-28 8 36 70 c20 39 43 76 52 83 18 14 61 8 102 -14z
m200 12 c0 -8 -9 -24 -21 -37 -22 -25 -22 -21 1 24 15 30 20 34 20 13z m396
-23 c-7 -7 -46 16 -46 28 0 5 11 2 25 -7 14 -9 24 -19 21 -21z m1969 7 c10
-11 14 -20 9 -20 -5 0 -15 9 -22 20 -7 11 -11 20 -9 20 2 0 12 -9 22 -20z
m-3991 -230 c8 -30 14 -56 12 -58 -6 -5 -35 88 -42 136 -4 23 -10 42 -15 42
-11 0 -81 -121 -121 -207 -43 -96 -83 -214 -104 -313 -25 -114 -25 -368 -1
-495 14 -73 65 -248 94 -325 4 -10 2 -12 -4 -5 -18 17 -70 166 -91 260 -48
205 -51 379 -10 610 35 206 108 388 215 536 l38 54 7 -90 c3 -50 13 -115 22
-145z m76 183 c-11 -17 -11 -17 -6 0 3 10 6 24 7 30 0 9 2 9 5 0 3 -7 0 -20
-6 -30z m2448 -18 c0 -16 -2 -15 -8 5 -11 34 -11 60 0 35 5 -11 8 -29 8 -40z
m2121 8 c30 -62 62 -171 51 -178 -4 -3 -24 35 -45 83 -20 48 -43 97 -51 109
-13 20 -9 29 17 32 3 1 15 -20 28 -46z m-2395 -10 c-56 -28 -73 -43 -82 -67
-7 -18 -18 -40 -26 -51 -13 -18 -14 -18 -46 2 l-33 21 29 16 c30 17 27 17 -36
-1 -36 -11 34 25 135 69 130 56 159 62 59 11z m351 11 c-27 -42 -44 -113 -39
-168 4 -44 3 -47 -7 -26 -6 14 -12 52 -12 86 -2 52 2 66 26 97 32 42 58 51 32
11z m1782 -185 l81 -41 121 16 c128 17 146 15 162 -16 16 -29 2 -35 -22 -9
-11 12 -28 20 -37 17 -9 -3 -67 -8 -128 -12 -124 -7 -110 -11 -274 84 -163 96
-238 143 -251 158 -7 9 50 -23 127 -71 76 -47 176 -104 221 -126z m-432 183
c-3 -3 -11 0 -18 7 -9 10 -8 11 6 5 10 -3 15 -9 12 -12z m-3589 -8 c-3 -9 -6
-25 -6 -37 0 -16 -3 -18 -9 -9 -10 17 -2 62 11 62 6 0 7 -7 4 -16z m2514 -14
c23 -23 24 -30 7 -54 -25 -34 -70 15 -53 59 7 20 22 19 46 -5z m-2760 -6 c0
-2 -7 -4 -15 -4 -8 0 -15 4 -15 10 0 5 7 7 15 4 8 -4 15 -8 15 -10z m2210 2
c0 -8 -7 -16 -15 -20 -17 -6 -18 -4 -9 18 8 20 24 21 24 2z m332 -36 c16 0 78
-49 78 -62 0 -7 -5 -7 -14 1 -11 9 -18 8 -30 -4 -22 -23 -20 -61 6 -87 l21
-21 19 23 c10 12 18 18 18 13 0 -17 -37 -44 -52 -38 -9 4 -21 16 -27 28 -10
20 -11 19 -6 -11 7 -46 -10 -31 -31 28 -10 29 -21 45 -25 38 -4 -6 -11 4 -18
26 -10 38 -3 75 22 104 9 12 13 10 20 -12 5 -14 13 -26 19 -26z m1434 -18 c-5
-4 -96 56 -96 63 0 2 23 -10 50 -27 28 -17 48 -33 46 -36z m116 59 c23 -9 68
-44 68 -54 0 -2 -25 7 -55 21 -67 32 -78 58 -13 33z m-4145 -58 c-3 -10 -5 -2
-5 17 0 19 2 27 5 18 2 -10 2 -26 0 -35z m1493 -9 c0 -12 -14 -39 -31 -60 -17
-22 -37 -48 -45 -58 -7 -11 -16 -17 -20 -13 -4 3 14 35 40 69 36 49 46 69 41
88 -4 19 -3 21 5 10 5 -8 10 -25 10 -36z m912 21 c22 -49 -37 -77 -67 -31 -21
32 -10 56 26 56 22 0 32 -7 41 -25z m-483 -77 c39 -125 59 -250 76 -481 16
-219 23 -261 66 -407 55 -185 103 -249 206 -270 86 -18 108 -28 58 -29 -94 -2
-161 40 -214 132 -42 73 -100 288 -121 447 -10 74 -18 128 -19 121 -2 -28 -20
4 -30 54 -9 44 -10 40 -5 -40 8 -151 63 -429 110 -554 30 -79 25 -91 -9 -19
-47 100 -83 262 -107 488 -5 47 -12 99 -14 115 -3 17 -14 78 -24 138 -10 59
-17 107 -15 107 6 0 23 -52 29 -84 2 -17 9 -45 13 -61 l9 -30 1 35 c0 19 -4
54 -9 78 -13 54 -39 256 -35 261 2 2 10 -19 19 -45 22 -72 19 -31 -4 56 -23
86 -21 80 -15 80 2 0 17 -42 34 -92z m-499 63 c0 -6 -4 -13 -10 -16 -5 -3 -10
1 -10 9 0 9 5 16 10 16 6 0 10 -4 10 -9z m799 -17 c35 -45 21 -134 -20 -134
-19 0 -67 30 -73 45 -32 83 42 153 93 89z m664 11 c-3 -9 -8 -14 -10 -11 -3 3
-2 9 2 15 9 16 15 13 8 -4z m746 -21 c12 -15 21 -32 21 -38 -1 -6 -8 1 -16 17
-8 15 -21 27 -29 27 -7 0 -17 5 -20 10 -14 22 25 8 44 -16z m451 0 c0 -2 -9 0
-20 6 -11 6 -20 13 -20 16 0 2 9 0 20 -6 11 -6 20 -13 20 -16z m-1037 9 c-7
-2 -21 -2 -30 0 -10 3 -4 5 12 5 17 0 24 -2 18 -5z m445 -9 c12 -8 22 -20 22
-25 0 -6 -7 -3 -16 5 -15 15 -34 20 -63 17 -7 -2 -10 2 -6 8 9 16 37 13 63 -5z
m-1194 -18 c-6 -16 -24 -23 -24 -8 0 10 22 33 27 28 2 -2 1 -11 -3 -20z
m-1024 -23 l28 -16 -45 -86 c-24 -47 -55 -99 -67 -116 -12 -16 -69 -104 -126
-195 -240 -386 -216 -275 35 159 60 104 92 168 86 174 -6 6 -5 20 5 38 16 32
26 39 18 12 -5 -15 -4 -16 5 -3 13 18 14 50 2 50 -4 0 -23 -28 -41 -62 -19
-35 -85 -150 -147 -257 -63 -106 -127 -220 -144 -253 l-30 -59 21 -35 c16 -25
18 -34 8 -34 -21 0 -48 54 -48 94 0 44 10 63 183 366 83 145 143 239 157 247
24 12 50 6 100 -24z m1509 13 c63 -32 168 -96 158 -96 -20 0 -233 119 -214
120 4 0 29 -11 56 -24z m-2772 -8 c-3 -8 -6 -5 -6 6 -1 11 2 17 5 13 3 -3 4
-12 1 -19z m3003 1 c0 -6 -5 -7 -10 -4 -6 4 -19 1 -28 -6 -13 -11 -13 -9 2 8
18 22 36 22 36 2z m-2799 -55 c-32 -62 -41 -67 -16 -8 10 24 11 32 2 27 -7 -4
-20 -9 -30 -10 -9 -2 -47 -16 -84 -33 -75 -34 -97 -33 -31 1 55 30 182 87 186
84 1 -1 -11 -29 -27 -61z m518 50 c28 -20 13 -34 -36 -34 -43 0 -125 -32 -168
-64 -41 -31 -47 -32 -71 -5 -19 21 -19 21 16 50 58 49 109 69 175 69 40 0 69
-6 84 -16z m835 -109 c14 -44 30 -108 36 -142 19 -111 12 -433 -9 -433 -4 0
-5 52 -3 115 3 81 1 115 -7 115 -6 0 -11 7 -11 16 0 8 4 13 10 9 23 -14 -18
221 -59 342 -20 58 -25 85 -18 92 15 15 31 -14 61 -114z m2606 99 c0 -2 -9 0
-20 6 -11 6 -20 13 -20 16 0 2 9 0 20 -6 11 -6 20 -13 20 -16z m-2116 -3 c3
-5 -6 -11 -21 -14 -26 -5 -26 -4 -8 9 22 17 22 17 29 5z m593 -13 c-3 -8 -6
-5 -6 6 -1 11 2 17 5 13 3 -3 4 -12 1 -19z m503 15 c-69 -23 -73 -23 -60 -8 7
8 27 15 44 14 17 0 24 -3 16 -6z m-387 -19 c70 -36 168 -96 164 -101 -7 -6
-156 70 -187 96 -30 25 -20 27 23 5z m1237 -36 c-13 -17 -17 -27 -11 -23 10 5
10 3 0 -12 -6 -11 -17 -20 -23 -20 -6 0 -19 -4 -28 -8 -32 -13 -20 14 29 66
49 53 72 50 33 -3z m260 7 c0 -3 -18 4 -40 15 -22 11 -40 23 -40 25 0 3 18 -4
40 -15 22 -11 40 -23 40 -25z m-960 25 c12 -8 9 -10 -12 -10 -15 0 -37 -10
-49 -22 l-21 -23 11 22 c10 20 37 42 51 43 3 0 12 -5 20 -10z m474 -17 c36
-19 111 -87 138 -127 12 -18 -5 -6 -40 29 -33 33 -87 75 -119 93 -55 32 -39
35 21 5z m-3604 -21 c0 -4 -11 -8 -26 -8 -23 -2 -24 -1 -7 11 17 13 33 11 33
-3z m630 8 c20 -5 45 -17 55 -25 18 -15 17 -15 -12 0 -18 8 -57 15 -88 15
-100 0 -230 -84 -280 -179 -14 -29 -14 -30 2 -24 10 3 15 2 10 -2 -4 -5 7 -15
24 -22 31 -13 33 -12 81 33 59 55 103 74 165 73 l48 -2 -50 -6 c-127 -17 -214
-108 -270 -282 l-21 -67 -43 15 c-59 20 -63 11 -57 -112 7 -163 65 -313 158
-411 55 -58 96 -81 178 -101 l55 -13 -54 6 c-71 7 -119 33 -187 101 -91 90
-155 248 -170 418 -8 89 17 244 51 321 88 199 253 307 405 264z m1545 0 c-11
-17 -90 -59 -141 -75 -71 -22 -77 -18 -14 9 30 12 75 35 100 49 47 28 65 34
55 17z m1746 -31 c-5 -13 -10 -19 -10 -12 -1 15 10 45 15 40 3 -2 0 -15 -5
-28z m252 -21 c9 -11 17 -28 17 -37 -1 -9 -7 -1 -15 17 -8 17 -18 32 -22 32
-4 0 -19 10 -33 21 l-25 21 30 -17 c17 -9 38 -26 48 -37z m-4236 26 c-3 -3
-12 -4 -19 -1 -8 3 -5 6 6 6 11 1 17 -2 13 -5z m1237 -55 c-41 -60 -48 -57
-11 5 17 30 34 50 36 45 1 -6 -9 -28 -25 -50z m1514 3 c35 -19 61 -36 58 -39
-7 -7 -176 76 -176 87 0 11 31 -2 118 -48z m928 27 c3 -6 -5 -3 -20 6 -14 10
-26 19 -26 22 0 7 39 -17 46 -28z m-3701 3 c-3 -3 -11 0 -18 7 -9 10 -8 11 6
5 10 -3 15 -9 12 -12z m60 8 c-3 -5 -11 -10 -16 -10 -6 0 -7 5 -4 10 3 6 11
10 16 10 6 0 7 -4 4 -10z m575 -10 c0 -19 -11 -26 -23 -14 -8 8 3 34 14 34 5
0 9 -9 9 -20z m1855 10 c3 -5 -1 -10 -9 -10 -9 0 -16 5 -16 10 0 6 4 10 9 10
6 0 13 -4 16 -10z m142 -12 c-3 -8 -6 -5 -6 6 -1 11 2 17 5 13 3 -3 4 -12 1
-19z m-1590 -50 c-74 -136 -119 -213 -129 -223 -12 -11 56 117 82 155 10 14
29 49 44 78 14 28 29 52 32 52 3 0 -10 -28 -29 -62z m1232 43 c-40 -31 -192
-92 -224 -90 -18 1 216 107 239 109 5 0 -2 -8 -15 -19z m-2199 -47 c-10 -27
-19 -43 -20 -37 0 16 31 95 36 90 2 -2 -5 -25 -16 -53z m4013 -4 c4 -36 3 -46
-3 -30 -8 25 -13 97 -6 89 2 -2 6 -29 9 -59z m-4158 -45 c25 -53 45 -99 45
-102 0 -14 -59 84 -75 125 -10 23 -21 42 -25 42 -8 0 -83 -79 -118 -125 l-23
-30 17 35 c14 29 120 150 131 150 2 0 24 -43 48 -95z m108 75 c-3 -12 -8 -19
-11 -16 -5 6 5 36 12 36 2 0 2 -9 -1 -20z m1764 -2 c-3 -8 -6 -5 -6 6 -1 11 2
17 5 13 3 -3 4 -12 1 -19z m713 -10 c0 -6 -7 -5 -15 2 -8 7 -15 17 -15 22 0 6
7 5 15 -2 8 -7 15 -17 15 -22z m1236 0 l29 -33 -32 29 c-31 28 -38 36 -30 36
2 0 16 -15 33 -32z m444 -30 c0 -29 -17 -21 -29 13 -16 47 -14 55 9 29 11 -13
20 -31 20 -42z m463 41 c43 -12 102 -59 121 -98 22 -43 26 -98 11 -149 -17
-53 -64 -119 -65 -89 0 10 9 30 21 46 22 29 36 99 25 126 -5 13 -12 12 -46
-11 l-41 -27 -42 40 c-49 47 -112 81 -169 91 l-39 7 68 37 c72 40 96 44 156
27z m-4670 -14 c-3 -9 -8 -14 -10 -11 -3 3 -2 9 2 15 9 16 15 13 8 -4z m2322
-10 c-53 -33 -206 -97 -219 -92 -6 3 30 23 79 46 50 23 104 48 120 56 50 23
63 16 20 -10z m415 -10 c60 -30 94 -55 75 -55 -12 0 -144 70 -150 80 -10 16 1
12 75 -25z m1775 21 c-23 -16 -95 -47 -95 -41 0 6 92 54 105 55 5 0 1 -6 -10
-14z m-3623 -39 c-8 -32 -50 -97 -67 -104 -8 -3 -15 -10 -15 -16 0 -19 -32
-46 -48 -41 -14 5 -14 4 1 -6 9 -6 17 -20 17 -32 0 -19 -1 -19 -19 3 -17 21
-22 22 -40 11 -14 -8 -21 -8 -21 -2 0 6 13 18 28 27 16 9 57 56 92 104 61 85
84 103 72 56z m1484 -6 c-11 -18 -236 -119 -236 -107 0 8 95 59 159 86 72 31
85 34 77 21z m364 -32 c45 -22 80 -42 77 -45 -6 -6 -149 55 -167 72 -25 25 6
16 90 -27z m-665 -104 c41 -58 87 -140 67 -120 -5 6 -40 53 -77 105 -37 52
-73 102 -79 110 -6 8 2 4 18 -10 15 -14 47 -52 71 -85z m2454 90 c78 -27 141
-88 157 -150 7 -27 2 -24 -46 28 -58 64 -103 91 -173 107 -39 8 -52 7 -89 -10
-24 -11 -34 -18 -23 -15 77 24 123 17 187 -25 25 -17 58 -49 72 -73 15 -23 18
-32 7 -19 -24 27 -33 28 -51 2 -21 -29 -43 -25 -83 15 -45 45 -67 46 -33 1 29
-39 33 -56 11 -56 -8 0 -15 -4 -15 -10 0 -5 -3 -9 -7 -8 -9 2 -66 -24 -73 -33
-3 -3 -22 -9 -43 -13 -21 -4 -36 -10 -33 -14 2 -4 -7 -8 -21 -9 -14 0 -30 -6
-37 -13 -8 -8 -6 -9 9 -4 14 5 17 4 10 -3 -27 -28 -52 -24 -86 14 -18 21 -37
37 -42 35 -5 -1 -6 2 -2 8 3 5 1 10 -4 10 -12 0 -99 62 -100 71 -1 5 51 30
294 138 99 44 146 50 214 26z m-2134 -11 c-44 -34 -201 -102 -211 -91 -7 6
196 106 216 106 11 0 10 -4 -5 -15z m321 -20 c32 -15 54 -28 48 -31 -6 -2 -44
12 -85 32 -84 40 -54 39 37 -1z m1014 31 c0 -2 -35 -28 -77 -57 -43 -28 -71
-43 -63 -33 13 16 127 95 137 95 1 0 3 -2 3 -5z m590 -2 c-8 -3 -58 -26 -110
-51 -135 -63 -182 -83 -186 -79 -10 9 269 137 296 136 13 -1 13 -1 0 -6z
m-4633 -35 c-3 -7 -5 -2 -5 12 0 14 2 19 5 13 2 -7 2 -19 0 -25z m2108 -138
c3 -39 -1 -27 -14 40 -11 52 -19 102 -19 110 1 29 28 -95 33 -150z m-1185 110
c0 -35 -10 -38 -36 -9 -16 17 -16 22 -4 29 27 17 40 11 40 -20z m1834 15 c-51
-35 -221 -111 -230 -103 -6 7 216 117 236 118 10 0 8 -5 -6 -15z m254 -27 c24
-11 42 -22 39 -25 -6 -6 -117 43 -117 51 0 6 20 0 78 -26z m-2952 -156 c-6 -6
-44 102 -51 144 -3 21 8 -1 24 -51 17 -49 29 -91 27 -93z m928 145 c-4 -51 -5
-53 -14 -32 -8 18 -9 18 -9 -5 0 -14 6 -42 13 -62 18 -49 12 -48 -14 2 -20 39
-27 100 -13 114 13 12 38 1 37 -17z m2976 10 c0 -2 -10 -12 -22 -23 l-23 -19
19 23 c18 21 26 27 26 19z m-1185 -23 c-34 -26 -215 -110 -215 -99 0 11 207
115 230 114 3 0 -4 -7 -15 -15z m200 -8 c19 -8 35 -18 35 -21 0 -5 -70 21 -79
30 -8 9 10 5 44 -9z m-198 -52 c-44 -29 -168 -87 -174 -80 -5 5 15 17 117 68
88 43 109 48 57 12z m231 -4 c3 0 3 -2 0 -5 -5 -6 -78 22 -78 30 0 3 16 -2 36
-10 20 -8 39 -15 42 -15z m622 6 c58 -30 118 -85 146 -132 33 -56 26 -67 -10
-16 -73 106 -234 169 -355 138 -60 -15 -204 -76 -197 -83 2 -2 34 8 71 22 37
14 72 25 79 25 21 -1 -98 -59 -302 -146 -268 -115 -295 -132 -346 -216 -53
-86 -59 -91 -51 -43 17 96 90 173 213 226 42 18 158 71 257 117 289 137 278
133 375 129 57 -2 97 -9 120 -21z m428 -3 c2 -8 -5 -13 -17 -13 -12 0 -21 6
-21 16 0 18 31 15 38 -3z m-2835 -8 c-3 -9 -8 -14 -10 -11 -3 3 -2 9 2 15 9
16 15 13 8 -4z m2534 -1 c34 -17 83 -77 83 -103 0 -11 -3 -11 -15 -1 -8 7 -15
9 -15 6 0 -4 -14 9 -31 29 -17 19 -44 43 -60 52 -55 33 -24 46 38 17z m-931
-26 c4 -6 3 -8 -4 -4 -6 3 -14 2 -17 -4 -8 -14 -166 -93 -172 -87 -2 3 24 21
59 40 63 35 121 66 125 67 1 0 5 -5 9 -12z m1541 -24 c61 -35 129 -132 108
-152 -4 -4 -10 0 -13 8 -10 31 -109 116 -172 148 l-65 33 49 -5 c27 -3 69 -18
93 -32z m-3600 4 c-3 -8 -6 -5 -6 6 -1 11 2 17 5 13 3 -3 4 -12 1 -19z m413
-29 c-12 -23 -24 -38 -27 -35 -5 5 35 76 43 76 2 0 -5 -18 -16 -41z m1195 -3
c60 -36 92 -77 143 -186 92 -199 104 -221 152 -273 88 -96 107 -101 435 -107
154 -4 258 -7 230 -9 -44 -3 -46 -4 -20 -10 l30 -7 -25 -7 c-36 -10 -428 -8
-472 2 -25 6 -36 5 -32 -1 9 -14 -30 -2 -103 33 -91 44 -151 126 -223 307 -18
45 -35 81 -37 78 -3 -2 7 -35 22 -71 14 -37 24 -69 22 -72 -3 -2 -8 6 -12 19
-4 13 -16 43 -27 66 -11 24 -17 51 -14 59 13 32 -38 97 -119 153 -25 17 -45
33 -45 35 0 2 -3 10 -6 19 -5 13 -1 14 26 6 17 -5 51 -20 75 -34z m2405 3 c0
-5 -4 -9 -10 -9 -5 0 -10 7 -10 16 0 8 5 12 10 9 6 -3 10 -10 10 -16z m-3944
-23 c0 -31 -2 -34 -18 -25 -21 11 -23 30 -6 47 19 19 23 15 24 -22z m1281 -3
c-3 -10 -5 -4 -5 12 0 17 2 24 5 18 2 -7 2 -21 0 -30z m1409 14 c-89 -66 -126
-138 -126 -248 0 -163 73 -290 187 -326 31 -9 33 -12 13 -12 -39 -1 -107 34
-146 76 -47 50 -82 120 -98 196 -11 48 -14 55 -15 28 -1 -26 -4 -32 -17 -27
-15 6 -16 -1 -11 -51 5 -57 5 -57 -8 -23 -8 19 -14 51 -14 71 l-1 35 -45 -2
-45 -2 0 50 c0 44 -2 49 -15 38 -8 -7 -15 -9 -15 -5 0 12 37 55 43 49 2 -3 14
8 26 24 19 28 84 62 144 76 41 10 32 -2 -18 -24 -57 -24 -59 -34 -3 -14 23 8
56 29 73 46 25 26 98 68 115 67 3 0 -8 -10 -24 -22z m171 4 c34 -21 78 -88 88
-136 6 -24 2 -21 -16 15 -13 25 -45 66 -72 93 -51 50 -51 59 0 28z m613 -2
c41 -25 90 -69 90 -81 0 -5 -15 -6 -34 -2 l-34 6 3 -44 c4 -37 3 -39 -4 -13
-5 17 -9 26 -10 21 0 -5 -7 -4 -14 2 -7 6 -22 9 -34 6 -15 -4 -23 0 -27 14 -7
21 -46 61 -46 47 0 -5 7 -16 16 -26 20 -22 43 -86 43 -119 0 -17 -6 -7 -18 28
-27 78 -56 104 -108 100 -46 -3 -50 0 -30 21 10 11 10 13 0 7 -7 -4 -13 -3
-13 2 0 13 22 22 90 37 78 18 91 18 130 -6z m-4220 -38 c-1 -10 -6 -7 -15 9
-19 33 -18 50 0 26 8 -11 15 -27 15 -35z m2739 33 c-15 -18 -154 -90 -144 -75
5 9 143 90 154 91 2 0 -2 -7 -10 -16z m-2082 -16 c-3 -8 -6 -5 -6 6 -1 11 2
17 5 13 3 -3 4 -12 1 -19z m305 -24 c-5 -24 -19 -42 -45 -56 -18 -9 -19 -8
-13 18 13 53 67 88 58 38z m-101 -8 c-7 -8 -16 -27 -21 -43 -6 -21 -8 -23 -9
-8 -1 20 24 65 36 65 3 0 0 -6 -6 -14z m190 -13 c-12 -20 -14 -14 -5 12 4 9 9
14 11 11 3 -2 0 -13 -6 -23z m-404 -95 c-2 -24 -4 -7 -4 37 0 44 2 63 4 43 2
-21 2 -57 0 -80z m1390 65 c-3 -10 -5 -2 -5 17 0 19 2 27 5 18 2 -10 2 -26 0
-35z m1463 30 c0 -3 -7 -14 -16 -24 -42 -46 -55 -145 -29 -220 l15 -44 -25 30
c-14 17 -32 29 -40 27 -8 -2 -15 1 -15 6 0 6 -7 13 -16 16 -29 11 -3 -104 39
-169 l19 -30 -26 30 c-38 44 -60 119 -59 202 1 59 6 81 27 117 15 25 34 50 44
55 19 12 82 15 82 4z m-1792 -68 c11 -13 8 -12 -11 4 -15 14 -27 34 -26 45 0
19 1 18 10 -4 6 -13 18 -34 27 -45z m-1612 3 c20 -29 48 -69 62 -88 l24 -35
-27 30 c-30 35 -108 145 -101 145 2 0 21 -24 42 -52z m3415 19 c-12 -14 -28
-51 -36 -88 -9 -44 -14 -54 -14 -33 -2 52 10 92 35 119 13 14 26 25 30 25 4 0
-2 -11 -15 -23z m101 -14 c8 -10 19 -25 23 -33 6 -12 5 -13 -6 -2 -18 17 -34
15 -19 -3 9 -11 9 -15 1 -15 -7 0 -9 -4 -6 -10 3 -5 -1 -10 -9 -10 -11 0 -16
-10 -16 -31 0 -17 -4 -28 -10 -24 -5 3 -10 -1 -10 -9 0 -9 -4 -16 -10 -16 -5
0 -10 -9 -10 -20 0 -30 -17 -24 -29 11 -22 64 -5 158 31 172 27 11 55 6 70
-10z m-872 2 c0 -2 -12 -11 -27 -19 -49 -25 -123 -97 -154 -150 l-31 -51 5 48
c5 52 42 115 84 142 13 9 43 20 66 25 56 11 57 11 57 5z m-693 -42 c-3 -10 -5
-4 -5 12 0 17 2 24 5 18 2 -7 2 -21 0 -30z m458 -16 c10 -8 15 -19 11 -25 -10
-17 -26 -15 -26 3 0 7 -8 19 -17 24 -15 9 -15 10 -2 11 8 0 23 -6 34 -13z
m1354 -1 c108 -16 143 -36 65 -36 -62 0 -153 16 -197 35 l-32 14 35 1 c19 0
77 -6 129 -14z m-844 -6 c-3 -5 -11 -10 -16 -10 -6 0 -7 5 -4 10 3 6 11 10 16
10 6 0 7 -4 4 -10z m25 -10 c-6 -11 -13 -20 -16 -20 -2 0 0 9 6 20 6 11 13 20
16 20 2 0 0 -9 -6 -20z m-208 -16 c-36 -25 -74 -112 -78 -178 -4 -70 -10 -79
-25 -40 -24 63 16 179 74 214 38 24 61 27 29 4z m103 6 c28 -10 75 -56 75 -73
0 -5 -9 2 -21 17 -11 14 -27 26 -36 26 -13 0 -14 -2 -2 -17 8 -10 9 -14 2 -10
-6 4 -14 3 -18 -3 -3 -5 0 -10 7 -11 7 0 3 -4 -9 -9 -18 -7 -23 -18 -24 -47
-1 -37 -1 -38 -9 -8 -6 27 -8 28 -15 11 -5 -12 -3 -36 7 -63 9 -24 14 -43 12
-43 -8 0 -54 89 -54 105 0 18 -1 18 -15 -1 -13 -18 -14 -18 -15 -1 0 11 -5 15
-11 11 -29 -18 22 89 53 110 26 19 37 20 73 6z m-1710 -100 c-8 -25 -12 -34
-10 -20 3 14 9 48 13 75 5 39 8 43 10 20 1 -16 -4 -50 -13 -75z m-507 50 c1
-23 -3 -38 -9 -35 -15 10 -10 75 6 75 2 0 3 -18 3 -40z m768 -33 c-3 -30 -16
-87 -30 -128 -25 -80 -124 -264 -166 -308 -13 -14 -23 -29 -22 -34 1 -4 -1 -6
-5 -6 -19 3 -33 -2 -33 -12 0 -5 5 -7 10 -4 18 11 10 -1 -17 -26 -14 -13 -23
-18 -18 -10 5 9 3 12 -6 9 -8 -3 -13 -11 -11 -17 1 -6 -1 -10 -5 -9 -5 1 -28
-9 -53 -24 -45 -26 -150 -62 -158 -53 -2 2 9 7 24 11 83 20 161 69 245 153 72
73 93 102 141 197 39 77 63 141 79 212 13 56 26 102 28 102 2 0 1 -24 -3 -53z
m521 31 c-3 -8 -6 -5 -6 6 -1 11 2 17 5 13 3 -3 4 -12 1 -19z m-324 -25 c-26
-184 -110 -401 -221 -568 -66 -99 -158 -211 -195 -237 -24 -16 -18 -7 23 38
188 205 305 430 361 697 12 59 26 107 30 107 4 0 5 -17 2 -37z m-924 -142 c40
-40 61 -51 61 -31 0 6 -4 10 -10 10 -5 0 -10 4 -10 9 0 14 29 21 48 11 9 -5
33 -12 53 -15 39 -6 48 -29 19 -52 -26 -22 9 -15 66 11 52 24 91 68 136 155
18 34 19 34 13 7 -3 -16 -24 -55 -45 -86 -39 -57 -85 -89 -152 -105 -47 -12
-123 13 -172 56 -43 38 -106 144 -106 178 0 9 13 -12 29 -46 16 -34 48 -80 70
-102z m136 139 c10 -11 13 -20 7 -20 -7 0 -12 5 -12 10 0 6 -9 10 -20 10 -24
0 -25 -8 -4 -39 16 -22 15 -23 -2 -19 -23 4 -32 57 -12 69 19 12 23 11 43 -11z
m1781 -97 c-2 -3 -9 -2 -15 1 -6 4 -6 17 2 39 l12 32 3 -33 c2 -19 1 -36 -2
-39z m1544 48 c0 -17 -58 -71 -77 -71 -13 0 -9 5 14 20 17 10 37 28 43 39 11
22 20 27 20 12z m-3162 -15 c-7 -6 -18 -18 -25 -26 -11 -13 -12 -11 -2 11 6
14 17 26 25 26 12 0 12 -3 2 -11z m132 -5 c0 -16 -14 -20 -27 -10 -7 6 -14 8
-14 3 -1 -5 -2 -13 -4 -19 -1 -5 -3 -16 -3 -22 -3 -17 -22 -17 -22 0 0 7 5 24
12 38 9 19 18 24 35 21 13 -2 23 -8 23 -11z m2520 -28 c-11 -17 -11 -17 -6 0
3 10 7 26 7 35 1 15 2 15 6 0 2 -10 -1 -25 -7 -35z m-3207 -60 c56 -58 57 -77
3 -43 -44 27 -74 68 -82 112 l-6 33 17 -25 c10 -14 41 -49 68 -77z m-109 -7
c14 -49 24 -91 22 -94 -5 -4 -39 102 -51 158 -13 62 2 28 29 -64z m807 67
c-12 -20 -14 -14 -5 12 4 9 9 14 11 11 3 -2 0 -13 -6 -23z m-293 -5 c16 -16
15 -38 0 -38 -23 0 -41 18 -35 34 8 19 19 20 35 4z m-273 -8 c-3 -5 -10 -10
-16 -10 -5 0 -9 5 -9 10 0 6 7 10 16 10 8 0 12 -4 9 -10z m2360 -9 c-3 -6 -16
-11 -28 -11 -21 0 -21 1 3 13 27 15 36 14 25 -2z m-730 0 c3 -5 1 -12 -5 -16
-5 -3 -10 1 -10 9 0 18 6 21 15 7z m-1106 -67 c-55 -91 -144 -162 -224 -179
-16 -3 -6 4 22 15 66 26 153 105 195 176 18 29 34 51 36 49 3 -3 -10 -30 -29
-61z m-517 41 c0 -5 -5 -11 -11 -13 -6 -2 -11 4 -11 13 0 9 5 15 11 13 6 -2
11 -8 11 -13z m130 -74 c-3 -6 -82 71 -82 80 0 4 19 -12 43 -35 23 -22 41 -43
39 -45z m2906 45 c-6 -14 -17 -27 -24 -30 -9 -3 -5 7 8 24 26 36 31 38 16 6z
m-1385 -26 l6 -35 -15 28 c-8 15 -12 32 -8 38 8 14 10 10 17 -31z m-598 -22
l26 -53 -31 35 c-16 19 -30 42 -30 52 0 29 8 21 35 -34z m-1136 -47 c25 -5 57
-22 75 -40 41 -39 144 -101 170 -101 26 0 16 -8 -22 -19 -26 -8 -40 -4 -88 25
-58 35 -86 46 -46 18 12 -8 22 -20 22 -25 0 -5 -13 4 -29 20 -16 16 -32 27
-37 23 -4 -4 -4 -1 0 6 10 17 -11 42 -30 35 -8 -3 -14 0 -14 6 0 6 -8 11 -17
10 -11 0 -13 -3 -5 -6 6 -2 12 -12 12 -20 0 -11 7 -14 28 -9 l27 6 -25 -15
c-14 -8 -20 -15 -15 -15 6 0 2 -7 -8 -14 -19 -15 -6 -33 15 -20 6 4 8 3 5 -3
-12 -19 54 -45 127 -50 59 -5 83 -2 130 16 68 25 72 26 55 5 -52 -63 -193 -79
-286 -31 -61 31 -102 86 -138 182 -14 36 -25 70 -25 76 0 5 17 -4 38 -20 20
-17 57 -34 81 -40z m1337 -187 c65 -27 471 -38 979 -25 242 6 467 16 499 21
72 12 97 27 143 91 19 27 48 56 64 65 29 14 29 14 94 -54 35 -38 91 -88 124
-112 33 -24 59 -45 57 -47 -2 -2 -36 11 -77 28 -105 45 -152 38 -340 -47 -192
-87 -285 -125 -399 -164 -96 -32 -420 -114 -426 -107 -2 2 164 60 369 129 331
113 553 195 545 203 -2 2 -55 -3 -118 -11 -63 -7 -259 -18 -435 -24 -176 -5
-345 -13 -375 -16 -107 -13 -663 -213 -980 -353 -63 -28 -123 -51 -134 -51
-11 0 -62 12 -113 26 -87 25 -94 26 -117 10 -48 -31 -40 -16 25 52 76 78 138
158 199 257 46 75 129 246 149 308 l13 38 108 -101 c59 -55 125 -107 146 -116z
m-956 161 c0 -25 -23 -35 -35 -15 -10 16 2 40 20 40 9 0 15 -9 15 -25z m986
-124 c21 -5 84 -15 138 -21 55 -6 102 -13 105 -17 9 -9 -188 7 -238 19 -45 11
-107 63 -132 110 -7 12 10 -1 38 -29 33 -34 63 -55 89 -62z m1554 46 c0 -2
-10 -12 -22 -23 l-23 -19 19 23 c18 21 26 27 26 19z m-3059 -92 l10 -20 -16
20 c-9 11 -21 29 -26 40 l-10 20 16 -20 c9 -11 21 -29 26 -40z m1923 15 c16 0
27 -3 23 -6 -12 -12 -96 7 -119 27 -23 19 -22 19 22 -1 25 -11 58 -20 74 -20z
m-1833 -135 c18 -26 16 -25 -11 5 -17 19 -41 49 -52 65 -17 26 -16 25 11 -5
17 -19 41 -48 52 -65z m351 39 c-41 -11 -64 -12 -95 -5 l-42 11 40 -5 c22 -2
56 0 75 4 60 15 78 10 22 -5z m-286 -96 l19 -23 -25 20 c-14 11 -27 21 -29 22
-2 2 0 3 6 3 5 0 18 -10 29 -22z m199 -46 c43 -17 213 -23 275 -9 28 5 30 5
12 -3 -13 -5 -52 -14 -87 -20 -76 -12 -178 5 -242 40 -39 21 -30 20 42 -8z
m-80 -40 c-3 -3 -11 0 -18 7 -9 10 -8 11 6 5 10 -3 15 -9 12 -12z m2725 -114
c-93 -41 -482 -168 -515 -167 -11 0 534 185 550 187 6 0 -10 -9 -35 -20z"/>
<path d="M5082 5660 c0 -14 2 -19 5 -12 2 6 2 18 0 25 -3 6 -5 1 -5 -13z"/>
<path d="M5540 5471 c0 -5 -7 -17 -16 -25 -8 -9 -11 -16 -6 -16 5 0 17 11 26
25 9 14 12 25 6 25 -5 0 -10 -4 -10 -9z"/>
<path d="M4707 5455 c-4 -8 -3 -16 1 -19 4 -3 9 4 9 15 2 23 -3 25 -10 4z"/>
<path d="M3985 6195 c8 -27 15 -53 15 -56 0 -4 -19 -3 -42 2 -97 21 -94 20
-77 7 80 -65 84 -70 66 -83 -17 -12 -16 -14 10 -22 l28 -10 -50 -29 -50 -29
58 -3 c31 -2 57 -7 57 -11 0 -4 -6 -29 -14 -54 -8 -26 -12 -47 -9 -47 2 0 24
14 48 30 24 17 46 30 49 30 3 0 6 -13 6 -30 0 -44 15 -37 39 20 12 28 23 50
25 50 2 0 29 -11 60 -25 31 -14 56 -22 56 -19 0 3 -11 25 -25 48 l-25 43 40
27 c22 14 40 29 40 32 0 4 -19 4 -41 0 -36 -6 -41 -4 -35 10 5 13 2 15 -14 11
-25 -6 -25 0 0 63 11 28 20 53 20 56 0 2 -27 -10 -61 -27 -34 -16 -63 -29 -64
-27 -2 2 -13 24 -24 48 l-20 45 -1 -45 -1 -45 -40 45 -39 45 15 -50z"/>
<path d="M4237 6203 c-2 -10 -8 -27 -12 -38 -4 -11 4 -5 19 14 30 40 30 41 12
41 -7 0 -16 -8 -19 -17z"/>
<path d="M3880 6010 c0 -13 20 -13 40 0 12 8 9 10 -12 10 -16 0 -28 -4 -28
-10z"/>
<path d="M4027 5868 c-34 -24 -35 -38 -2 -38 18 0 26 7 31 25 9 35 4 37 -29
13z"/>
<path d="M3312 5750 c-35 -22 -65 -78 -60 -114 3 -18 6 -16 21 16 10 20 35 55
56 77 41 45 35 52 -17 21z"/>
<path d="M2621 5064 c-42 -53 -56 -120 -56 -264 0 -130 1 -137 30 -195 63
-127 198 -163 299 -80 27 21 29 29 28 78 -3 111 -41 256 -91 352 -54 102 -91
135 -152 135 -28 0 -42 -6 -58 -26z m164 -79 c50 -49 23 -147 -40 -147 -56 0
-83 69 -50 132 24 46 54 51 90 15z m81 -460 c-40 -32 -86 -39 -132 -20 -48 20
-41 26 17 13 38 -9 52 -8 90 10 57 26 60 26 25 -3z"/>
<path d="M3975 5337 c-150 -72 -267 -313 -269 -554 -1 -82 1 -94 22 -116 15
-16 43 -28 79 -36 168 -33 339 15 444 126 60 64 79 105 86 192 6 77 -14 171
-53 241 -14 25 -18 36 -8 25 28 -34 62 -117 75 -183 6 -34 14 -60 17 -58 10
11 -22 145 -49 203 -52 110 -133 173 -231 180 -52 3 -72 0 -113 -20z m50 -132
c49 -48 22 -131 -49 -155 -44 -14 -81 -4 -106 27 -31 39 -26 79 14 119 44 44
103 48 141 9z m120 -491 c-61 -51 -124 -74 -205 -73 -120 1 -130 16 -14 20 93
4 106 7 170 40 84 45 87 46 49 13z"/>
<path d="M4352 4900 c0 -14 2 -19 5 -12 2 6 2 18 0 25 -3 6 -5 1 -5 -13z"/>
<path d="M5700 5234 c-30 -19 -97 -58 -147 -85 -51 -28 -93 -53 -93 -56 0 -11
285 150 295 167 9 15 5 13 -55 -26z"/>
<path d="M5410 5070 c-9 -6 -10 -10 -3 -10 6 0 15 5 18 10 8 12 4 12 -15 0z"/>
<path d="M1890 4315 c0 -8 4 -15 10 -15 5 0 7 7 4 15 -4 8 -8 15 -10 15 -2 0
-4 -7 -4 -15z"/>
<path d="M1947 4279 c7 -7 15 -10 18 -7 3 3 -2 9 -12 12 -14 6 -15 5 -6 -5z"/>
<path d="M1858 4164 c-39 -21 -35 -28 5 -8 37 19 44 24 31 24 -5 -1 -21 -8
-36 -16z"/>
<path d="M1650 4491 c0 -5 7 -14 15 -21 13 -10 15 -9 15 9 0 12 -6 21 -15 21
-8 0 -15 -4 -15 -9z"/>
<path d="M4348 4143 c7 -3 16 -2 19 1 4 3 -2 6 -13 5 -11 0 -14 -3 -6 -6z"/>
<path d="M4362 3995 c-11 -12 -10 -15 3 -15 8 0 15 7 15 15 0 18 -2 18 -18 0z"/>
<path d="M5316 3435 c-9 -26 -7 -32 5 -12 6 10 9 21 6 23 -2 3 -7 -2 -11 -11z"/>
<path d="M5330 3351 c0 -26 27 -34 40 -12 7 14 6 20 -6 25 -26 10 -34 7 -34
-13z"/>
<path d="M4070 3940 c0 -13 18 -22 24 -11 3 5 -1 11 -9 15 -8 3 -15 1 -15 -4z"/>
<path d="M4165 3909 c-4 -6 -5 -12 -2 -15 2 -3 7 2 10 11 7 17 1 20 -8 4z"/>
<path d="M4001 3623 c-2 -34 39 -67 54 -43 3 5 0 7 -8 4 -16 -6 -33 11 -40 41
-4 19 -5 18 -6 -2z"/>
<path d="M3982 3580 c0 -14 2 -19 5 -12 2 6 2 18 0 25 -3 6 -5 1 -5 -13z"/>
<path d="M4011 3544 c0 -11 3 -14 6 -6 3 7 2 16 -1 19 -3 4 -6 -2 -5 -13z"/>
<path d="M3962 3509 c2 -6 8 -10 13 -10 5 0 11 4 13 10 2 6 -4 11 -13 11 -9 0
-15 -5 -13 -11z"/>
<path d="M4050 3511 c0 -5 7 -11 14 -14 10 -4 13 -1 9 9 -6 15 -23 19 -23 5z"/>
<path d="M4031 3494 c0 -11 3 -14 6 -6 3 7 2 16 -1 19 -3 4 -6 -2 -5 -13z"/>
<path d="M4000 3473 c0 -13 5 -23 10 -23 13 0 13 11 0 30 -8 12 -10 11 -10 -7z"/>
<path d="M3479 3302 c6 -12 16 -24 22 -28 8 -4 8 -1 0 14 -6 12 -16 24 -22 28
-8 4 -8 1 0 -14z"/>
<path d="M2885 3321 c-2 -5 7 -13 20 -19 20 -9 25 -9 25 2 0 15 -37 29 -45 17z"/>
<path d="M1828 3303 c7 -3 16 -2 19 1 4 3 -2 6 -13 5 -11 0 -14 -3 -6 -6z"/>
<path d="M1785 3149 c22 -4 51 -8 65 -7 16 0 11 3 -15 9 -22 4 -51 8 -65 7
-16 0 -11 -3 15 -9z"/>
<path d="M1698 3143 c7 -3 16 -2 19 1 4 3 -2 6 -13 5 -11 0 -14 -3 -6 -6z"/>
<path d="M1823 3123 c-10 -3 -10 -7 0 -18 7 -7 16 -11 21 -8 4 3 2 10 -5 15
-10 6 -7 7 9 3 13 -4 22 -2 22 4 0 11 -25 13 -47 4z"/>
<path d="M1760 3062 c0 -5 7 -15 15 -22 8 -7 15 -9 15 -6 0 4 -7 14 -15 22 -8
9 -15 11 -15 6z"/>
<path d="M1475 3077 c-11 -9 -14 -16 -7 -21 15 -9 42 4 42 20 0 18 -11 18 -35
1z"/>
<path d="M2717 3018 c-8 -30 0 -36 18 -12 18 24 19 34 1 34 -7 0 -16 -10 -19
-22z"/>
<path d="M2687 2974 c-3 -3 -3 -13 0 -22 5 -14 3 -14 -7 -5 -10 9 -16 9 -26
-2 -19 -19 -18 -21 13 -19 17 0 29 8 34 22 8 20 -2 38 -14 26z"/>
<path d="M1831 2456 c-18 -21 -9 -51 14 -51 24 0 32 36 12 53 -11 10 -17 9
-26 -2z m25 -18 c5 -7 3 -8 -6 -3 -10 6 -12 4 -7 -8 3 -10 2 -17 -3 -17 -11 0
-13 23 -3 33 9 9 11 9 19 -5z"/>
<path d="M6116 2613 c-6 -14 -5 -15 5 -6 7 7 10 15 7 18 -3 3 -9 -2 -12 -12z"/>
<path d="M6146 2595 c-16 -12 -17 -15 -4 -15 9 0 18 7 22 15 7 18 6 18 -18 0z"/>
<path d="M2260 2499 c0 -5 5 -7 10 -4 6 3 10 8 10 11 0 2 -4 4 -10 4 -5 0 -10
-5 -10 -11z"/>
<path d="M5720 2510 c-8 -5 -10 -10 -5 -10 6 0 17 5 25 10 8 5 11 10 5 10 -5
0 -17 -5 -25 -10z"/>
<path d="M6000 2501 c0 -12 5 -21 10 -21 6 0 10 6 10 14 0 8 -4 18 -10 21 -5
3 -10 -3 -10 -14z"/>
<path d="M5670 2490 c-8 -5 -10 -10 -5 -10 6 0 17 5 25 10 8 5 11 10 5 10 -5
0 -17 -5 -25 -10z"/>
<path d="M5640 2375 c-10 -12 -9 -16 5 -21 17 -7 38 13 29 28 -8 12 -20 10
-34 -7z"/>
<path d="M3808 1890 c35 -54 52 -68 115 -105 62 -36 60 -26 -3 15 -28 18 -71
56 -97 84 l-46 51 31 -45z"/>
<path d="M4558 2124 c-5 -4 -8 -25 -8 -48 0 -28 3 -37 11 -29 6 6 9 27 7 48
-2 20 -6 33 -10 29z"/>
<path d="M1786 1705 c20 -48 17 -46 32 -36 9 5 4 17 -18 42 l-30 34 16 -40z"/>
<path d="M4853 1709 c-9 -9 -10 -16 -2 -26 9 -10 8 -13 -4 -13 -8 0 -18 -7
-21 -16 -5 -13 -4 -14 7 -5 19 15 68 11 90 -7 30 -26 19 -5 -21 38 -29 32 -40
38 -49 29z"/>
<path d="M4855 1640 c3 -5 10 -10 16 -10 5 0 9 5 9 10 0 6 -7 10 -16 10 -8 0
-12 -4 -9 -10z"/>
<path d="M3342 1509 c-85 -10 -526 -77 -560 -86 -13 -3 -46 -36 -76 -77 -29
-39 -72 -91 -95 -115 -22 -24 -40 -45 -39 -46 34 -27 50 -25 161 18 172 69
811 273 952 306 53 12 -239 12 -343 0z"/>
<path d="M2848 1483 c7 -3 16 -2 19 1 4 3 -2 6 -13 5 -11 0 -14 -3 -6 -6z"/>
<path d="M1433 1013 c-7 -2 -13 -9 -13 -14 0 -13 20 -11 55 6 l30 13 -30 0
c-16 0 -36 -2 -42 -5z"/>
</g>
</svg>
